<svg xmlns="http://www.w3.org/2000/svg" xmlns:xlink="http://www.w3.org/1999/xlink" xmlns:lucid="lucid" width="1215.6" height="596.41"><g transform="translate(-157.5739150301748 -71.96255186154076)" lucid:page-tab-id="0_0"><path d="M178.07 161.8a6 6 0 0 1 6-6h1058.8a6 6 0 0 1 6 6v480.07a6 6 0 0 1-6 6H184.07a6 6 0 0 1-6-6z" stroke="#232f3e" fill="#fff" fill-opacity="0"/><path d="M178.07 155.8h56v56h-56v-56z" stroke="#fff" stroke-opacity="0" fill="#232f3e"/><path d="M218.95 197h-25c-4.13.06-7.56-3.07-7.88-7.2v-.62c-.17-3.4 1.96-6.4 5.24-7.36v-.66c.13-4.22 2.45-7.75 6.25-9.58 4.12-1.84 8.72-.95 11.8 2.33 1.08 1.1 1.84 2.2 2.44 3.6 1.2-1 2.7-1.33 4.23-.9 2.24.8 3.68 2.74 3.76 5.1 3.67.65 6.3 3.8 6.27 7.56 0 7.07-7.04 7.73-7.12 7.75zm-26.68-13.86c-2.84.6-4.77 3.14-4.6 6.04v.53c.28 3.33 3.08 5.84 6.4 5.76h24.96c3.04-.3 5.4-2.64 5.68-5.7.3-3.43-2.23-6.5-5.67-6.78-.44-.05-.72-.45-.64-.87.07-1.84-1-3.45-2.73-4.13-1.32-.37-2.64.13-3.44 1.24-.2.25-.44.38-.76.32-.28-.05-.48-.23-.6-.5-.6-1.6-1.4-2.85-2.6-4.03-2.68-2.8-6.6-3.6-10.12-2.02-3.24 1.6-5.2 4.65-5.32 8.26-.04.4-.04.74 0 1.13.04.4-.2.77-.6.85z" stroke="#fff" stroke-opacity="0" fill="#fff"/><use xlink:href="#a" transform="matrix(1,0,0,1,249.0739150301748,175.79588519487407) translate(0 14.4)"/><use xlink:href="#b" transform="matrix(1,0,0,1,249.0739150301748,175.79588519487407) translate(45.3 14.4)"/><path d="M897.34 426.14H984v86.67h-86.66v-86.66z" stroke="#fff" stroke-opacity="0" stroke-width="2" fill="#d86613"/><path d="M967.25 498.37H953c-.45 0-.82-.24-1-.64l-20.16-42.12h-8.5c-.66 0-1.17-.5-1.17-1.15v-12.7c0-.64.5-1.16 1.16-1.16h17.8c.46 0 .83.22 1.02.62l20.06 42.12h5.05c.65 0 1.16.52 1.16 1.16v12.7c0 .65-.5 1.17-1.15 1.17zm-13.5-2.3h12.35v-10.42h-4.63c-.46 0-.83-.23-1-.63l-20.08-42.12h-15.9v10.4h8.08c.46 0 .83.23 1.06.63z" stroke="#fff" stroke-opacity="0" stroke-width="2" fill="#fff"/><path d="M929.1 498.37h-15.02c-.4 0-.77-.22-1-.53-.23-.4-.23-.8-.05-1.16l15.73-32.83c.17-.42.58-.67 1.02-.67.46 0 .84.25 1.05.63l7.5 15.5c.2.3.2.66 0 1l-8.2 17.33c-.15.45-.56.74-1.04.74zm-13.18-2.33h12.45l7.65-16.15-6.22-12.92z" stroke="#fff" stroke-opacity="0" stroke-width="2" fill="#fff"/><use xlink:href="#c" transform="matrix(1,0,0,1,867.3410763364099,521.8103776094241) translate(2.333333333333343 12.444444444444443)"/><use xlink:href="#d" transform="matrix(1,0,0,1,867.3410763364099,521.8103776094241) translate(50.68518518518519 12.444444444444443)"/><use xlink:href="#e" transform="matrix(1,0,0,1,867.3410763364099,521.8103776094241) translate(62.74074074074075 12.444444444444443)"/><use xlink:href="#f" transform="matrix(1,0,0,1,867.3410763364099,521.8103776094241) translate(95.53703703703704 12.444444444444443)"/><use xlink:href="#g" transform="matrix(1,0,0,1,867.3410763364099,521.8103776094241) translate(136.02469135802468 12.444444444444443)"/><use xlink:href="#h" transform="matrix(1,0,0,1,867.3410763364099,521.8103776094241) translate(13.503086419753103 31.111111111111107)"/><use xlink:href="#i" transform="matrix(1,0,0,1,867.3410763364099,521.8103776094241) translate(46.3425925925926 31.111111111111107)"/><use xlink:href="#j" transform="matrix(1,0,0,1,867.3410763364099,521.8103776094241) translate(80.82407407407408 31.111111111111107)"/><use xlink:href="#k" transform="matrix(1,0,0,1,867.3410763364099,521.8103776094241) translate(54.98456790123457 49.77777777777777)"/><path d="M688.34 426.14H775v86.67h-86.66v-86.66z" stroke="#fff" stroke-opacity="0" stroke-width="2" fill="#3f8624"/><path d="M759.33 472.4c-.33-1.78-2.38-3.06-3.82-3.98-.43-.3-1.65-.76-1.76-1.16 0-.3 0-.58.1-.87l1.17-8.28 1-7.35c.28-2.2-.77-3.7-2.6-4.98-3.7-2.6-8.58-3.65-12.95-4.35-5.76-.92-10.8-1.1-16.6-.52-5.27.35-9.65 1.4-14.52 3.47-2.44 1.16-5.7 2.96-5.26 6.08 1.1 9.37 2.5 18.75 3.76 28.12.56 4.28 1.17 8.56 1.72 12.84.22 1.8 1.22 3.2 2.88 3.88 3.54 1.9 7.97 2.5 12.02 2.84 5.6.52 10.35.34 15.9-.7 3.3-.58 9.5-1.62 10.06-5.78.68-5.15 1.4-10.3 2.06-15.45l.28-1.56c1.88.46 7.25 1.44 6.6-2.26zm-29.35-29.5c6.98 0 14.9.8 21.1 4.22 1 .52 3.2 1.68 2.55 3.13-.67 1.4-2.77 2.08-4.05 2.6-1.88.7-3.6 1.16-5.6 1.56v.02c-8.63 1.73-16.27 1.9-25.02.5-3.93-.4-7.2-1.37-10.74-3.1-.83-.53-2.2-1.34-1.83-2.5.27-.63.7-1.1 1.32-1.44 2.72-1.74 5.2-2.78 8.36-3.36 4.76-1.16 8.97-1.68 13.9-1.62zm18.16 48.72c-.22 1.33-2.43 2.02-3.5 2.37-2.3.8-4.36 1.26-6.8 1.55-5.37.7-10.02.7-15.44 0-3.38-.3-6.2-1.04-9.25-2.54-.83-.34-1.33-1.1-1.38-1.96-1.17-9.2-2.44-18.34-3.72-27.48l-1.32-9.96c2.76 1.5 5.3 2.44 8.4 2.95 3.4.7 6.2 1.05 9.65 1.28 6.64.46 12.35.17 18.93-1.04 3.5-.53 6.38-1.52 9.48-3.2l-2.43 18.1c-6.2-2-11.3-4.04-17.1-6.87-.3-.12-.5-.23-.73-.35-.34-.23-.22-.1-.4-.46-.27-.7-.32-1.16-.93-1.74-.57-.4-1.18-.57-1.84-.52-1.44.06-2.55 1.33-2.44 2.78.1 1.4 1.4 2.5 2.83 2.37.4-.05.72-.16 1.16-.33.45-.12.45-.12.9.1 5.92 2.9 11.07 5.04 17.33 7.13.88.3.88 0 .88.75-.04.58-.1 1.1-.2 1.68l-.73 5.5zm-17.83-27.37c0 .35-.43.3-.54.12-.17-.24.55-.52.55-.12zm22.77 8.1l.33-2.55c1.17.7 3.1 1.68 3.66 2.96-1.16.46-2.94-.12-4-.4z" stroke="#fff" stroke-opacity="0" stroke-width="2" fill="#fff"/><use xlink:href="#l" transform="matrix(1,0,0,1,658.3429465304611,521.8103776094242) translate(22.94444444444447 13.61111111111111)"/><use xlink:href="#m" transform="matrix(1,0,0,1,658.3429465304611,521.8103776094242) translate(46.27777777777779 13.61111111111111)"/><use xlink:href="#n" transform="matrix(1,0,0,1,658.3429465304611,521.8103776094242) translate(76.52469135802468 13.61111111111111)"/><path d="M1106.34 426.14H1193v86.67h-86.66v-86.66z" stroke="#fff" stroke-opacity="0" stroke-width="2" fill="#3b48cc"/><path d="M1149.67 440.6c-6.3 0-11.72 1.73-16.86 5.43-12.93 9.3-15.88 27.36-6.58 40.3l1.85-1.37c-8.55-11.9-5.83-28.5 6.07-37.05 11.95-8.6 28.53-5.9 37.13 6.05 3.4 4.7 4.97 9.7 4.97 15.5 0 5.86-1.56 10.8-4.97 15.5l1.85 1.4c3.7-5.14 5.43-10.54 5.43-16.85 0-15.96-12.94-28.9-28.88-28.9z" stroke="#fff" stroke-opacity="0" stroke-width="2" fill="#fff"/><path d="M1164.7 486.4v-4.23c0-.62-.54-1.14-1.15-1.14h-12.73v-6.94h12.73c.6 0 1.15-.54 1.15-1.15V455.6c0-.62-.54-1.15-1.15-1.15h-27.76c-.62 0-1.15.53-1.15 1.15v17.35c0 .6.53 1.14 1.14 1.14h12.73v6.93h-12.74c-.62 0-1.15.52-1.15 1.14v4.2c-2 .45-3.47 1.9-3.93 3.92-.6 2.8 1.14 5.57 3.93 6.23 2.82.62 5.6-1.14 6.2-3.95.66-2.77-1.1-5.58-3.88-6.2v-3.02h11.56v4.74c-2.02.48-3.47 1.93-3.93 3.9-.65 2.82 1.1 5.58 3.93 6.24 2.78.66 5.57-1.1 6.2-3.9.66-2.82-1.1-5.58-3.9-6.24v-4.75h11.54v3.03c-1.98.44-3.43 1.9-3.9 3.9-.64 2.83 1.12 5.6 3.9 6.25 2.82.62 5.6-1.14 6.26-3.95.6-2.77-1.15-5.58-3.93-6.2zm-10.1-22.06l7.77-6.28v12.47zm-4.93 1l-10.6-8.56h21.2zm-5-1.05l-7.7 6.23v-12.47zm1.88 1.5l2.4 1.96c.42.35 1.03.35 1.45 0l2.32-1.93 7.44 5.97h-21.1zm-7.86 25.64c0 1.58-1.3 2.9-2.9 2.9-1.57 0-2.87-1.32-2.87-2.9 0-1.58 1.3-2.9 2.86-2.9 1.6 0 2.9 1.3 2.9 2.9zm13.87 1.7c0 1.63-1.3 2.9-2.9 2.9-1.6 0-2.9-1.27-2.9-2.9 0-1.57 1.3-2.85 2.9-2.85 1.6 0 2.9 1.27 2.9 2.85zm10.98 1.2c-1.6 0-2.9-1.32-2.9-2.9 0-1.58 1.3-2.9 2.9-2.9 1.57 0 2.86 1.3 2.86 2.9 0 1.58-1.28 2.9-2.85 2.9z" stroke="#fff" stroke-opacity="0" stroke-width="2" fill="#fff"/><use xlink:href="#o" transform="matrix(1,0,0,1,1076.3392061423588,521.8103776094242) translate(57.94444444444444 13.61111111111111)"/><path d="M1351.9 485.8h-35.78c-.4 0-.78-.35-.78-.77v-17.4h1.6v16.6h34.13v-22.9h-21.7v-1.58h22.52c.4 0 .78.37.78.78v24.5c0 .42-.38.78-.8.78z" stroke="#fff" stroke-opacity="0" fill="#3b48cc"/><path d="M1334 476.17c-.18 0-.35-.07-.5-.18l-9.6-8 1.03-1.2 9.06 7.55 17.37-14.42 1.03 1.2-17.86 14.86c-.17.1-.35.17-.55.17z" stroke="#fff" stroke-opacity="0" fill="#3b48cc"/><path d="M1336.63 473.38l1.02-1.2 14.74 12.24-1.04 1.2-14.73-12.24z" stroke="#fff" stroke-opacity="0" stroke-width=".64" fill="#3b48cc"/><path d="M1315.63 484.42l14.73-12.25 1.03 1.2-14.75 12.26-1.02-1.2z" stroke="#fff" stroke-opacity="0" stroke-width=".77" fill="#3b48cc"/><path d="M1321.04 465.23c.8 0 1.45-.13 2.2-.42v1.38c-.8.38-1.53.55-2.4.53-1 .04-1.9-.18-2.78-.7-.82-.48-1.38-1.12-1.76-1.98-.44-1.03-.63-2-.6-3.1-.03-1.48.25-2.76.9-4.07.6-1.2 1.35-2.04 2.45-2.75 1.04-.66 2.1-.97 3.34-.96 1.02-.03 1.92.18 2.82.67.82.45 1.4 1.05 1.8 1.9.45.95.64 1.85.62 2.9 0 .96-.13 1.77-.48 2.66-.26.72-.64 1.27-1.23 1.77-.5.42-1.04.63-1.7.63-.34 0-.65-.07-.96-.22-.3-.15-.5-.35-.67-.62-.27.28-.53.47-.88.63-.3.17-.58.25-.9.26-.62.04-1.15-.23-1.48-.72-.4-.68-.55-1.34-.5-2.12-.02-.84.1-1.57.4-2.37.2-.68.54-1.2 1.04-1.72.36-.38.8-.57 1.3-.6.6 0 1.1.3 1.44.8l.16-.57h1.46l-.66 4.86v.43c0 .15.03.3.13.44.1.1.22.16.35.16.35-.04.63-.23.8-.54.3-.44.48-.84.58-1.36.16-.6.23-1.14.22-1.78.08-1.1-.23-2.1-.94-2.98-.76-.75-1.7-1.1-2.77-1.02-.95 0-1.76.27-2.53.84-.8.6-1.35 1.32-1.73 2.25-.44 1.07-.63 2.04-.6 3.2-.08 1.2.23 2.24.95 3.22.68.77 1.6 1.17 2.62 1.1zm.48-2.96c.33 0 .6-.15.8-.4v-.26-.56l.43-3.16c-.2-.17-.44-.26-.7-.27-.38 0-.7.3-.96.87-.3.74-.43 1.4-.4 2.22.04 1.04.3 1.57.82 1.57z" stroke="#fff" stroke-opacity="0" fill="#3b48cc"/><path d="M1315.75 460.17h35.98v24.7h-35.98v-24.7z" stroke="#fff" stroke-opacity="0" stroke-width=".87" fill="#fff" fill-opacity="0"/><path d="M1322.02 454.05c2.86 0 5.18 2.28 5.18 5.08 0 2.8-2.32 5.1-5.18 5.1s-5.18-2.3-5.18-5.1 2.32-5.08 5.18-5.08z" stroke="#fff" stroke-opacity="0" stroke-width=".38" fill="#fff" fill-opacity="0"/><path d="M1193.5 469.48h105.45" stroke="#3a414a" fill="none"/><path d="M1193.52 469.98h-.5v-1h.5z" stroke="#3a414a" stroke-width=".05" fill="#3a414a"/><path d="M1313.72 469.48l-14.27 4.63v-9.26z" stroke="#3a414a" fill="#3a414a"/><path d="M984.5 469.48h105.45" stroke="#3a414a" fill="none"/><path d="M984.52 469.98h-.5v-1h.5z" stroke="#3a414a" stroke-width=".05" fill="#3a414a"/><path d="M1104.72 469.48l-14.27 4.63v-9.26z" stroke="#3a414a" fill="#3a414a"/><path d="M930.23 337.16v88.46M930.23 337.17v-.5M919.54 407.8l10.7 18.1M947.5 425.64v-89.87" stroke="#3a414a" fill="none"/><path d="M948 426.14h-1v-.5h1z" stroke="#3a414a" stroke-width=".05" fill="#3a414a"/><path d="M958.2 353.57l-10.7-18.07M775.5 469.48h105.47" stroke="#3a414a" fill="none"/><path d="M775.52 469.98h-.5v-1h.5z" stroke="#3a414a" stroke-width=".05" fill="#3a414a"/><path d="M895.72 469.48l-14.26 4.63v-9.26z" stroke="#3a414a" fill="#3a414a"/><path d="M507.7 98.46a6 6 0 0 1 6-6h435.94a6 6 0 0 1 6 6v51.34a6 6 0 0 1-6 6H513.7a6 6 0 0 1-6-6z" stroke="#000" stroke-opacity="0" fill="#fff" fill-opacity="0"/><use xlink:href="#p" transform="matrix(1,0,0,1,512.710465088315,97.46255186154076) translate(51.74691358024694 31.27777777777778)"/><use xlink:href="#q" transform="matrix(1,0,0,1,512.710465088315,97.46255186154076) translate(162.67283950617286 31.27777777777778)"/><use xlink:href="#r" transform="matrix(1,0,0,1,512.710465088315,97.46255186154076) translate(261.37654320987656 31.27777777777778)"/><use xlink:href="#s" transform="matrix(1,0,0,1,512.710465088315,97.46255186154076) translate(307.4259259259259 31.27777777777778)"/><path d="M467.4 477.17h58.33v58.34H467.4v-58.33z" stroke="#fff" stroke-opacity="0" stroke-width="2" fill="#d86613"/><path d="M514.46 525.8h-9.6c-.3 0-.55-.17-.67-.44L490.6 497h-5.73c-.44 0-.8-.34-.8-.77v-8.56c0-.43.36-.78.8-.78h11.97c.3 0 .56.15.7.42l13.5 28.35h3.4c.42 0 .76.35.76.78V525c0 .43-.34.78-.77.78zm-9.1-1.57h8.32v-7h-3.1c-.33 0-.57-.16-.7-.43l-13.5-28.35h-10.7v7h5.44c.3 0 .56.16.7.43z" stroke="#fff" stroke-opacity="0" stroke-width="2" fill="#fff"/><path d="M488.77 525.8h-10.1c-.28 0-.52-.16-.68-.37-.16-.26-.16-.54-.04-.78l10.58-22.1c.12-.28.4-.45.7-.45.3 0 .56.17.7.43l5.06 10.42c.12.2.12.45 0 .68l-5.53 11.66c-.1.3-.38.5-.7.5zm-8.87-1.58h8.38l5.15-10.87-4.18-8.7z" stroke="#fff" stroke-opacity="0" stroke-width="2" fill="#fff"/><use xlink:href="#t" transform="matrix(1,0,0,1,437.39783956978704,544.5081029115408) translate(6.740740740740748 13.61111111111111)"/><use xlink:href="#u" transform="matrix(1,0,0,1,437.39783956978704,544.5081029115408) translate(67.3641975308642 13.61111111111111)"/><path d="M217.4 425.42h87.4v87.4h-87.4v-87.4z" stroke="#000" stroke-opacity="0" fill="url(#v)"/><path d="M288.5 491.2c1.57 1.46 1.75 3.87.3 5.43-.7.8-1.8 1.24-2.82 1.24-.9 0-1.86-.34-2.58-.96l-7.04-6.37c-2.04 1.3-4.38 2-6.97 2-7.35 0-13.3-5.98-13.3-13.26 0-7.34 5.95-13.28 13.3-13.28 7.33 0 13.28 5.93 13.28 13.27 0 2-.42 3.86-1.2 5.6zm-19.1-1.4c5.82 0 10.57-4.7 10.57-10.53 0-5.83-4.75-10.53-10.58-10.53-5.78 0-10.53 4.7-10.53 10.53 0 5.82 4.75 10.53 10.52 10.53zm-27.85-32.2c0 .55 0 1.1.12 1.6 0 .4-.12.8-.36 1.08-.17.22-.47.4-.77.44-2.53.68-6.8 2.7-6.8 8.7 0 4.52 2.53 7 4.63 8.33.9.56 1.75.85 2.4.85h12.33v2.74h-12.33c-1.2 0-2.53-.45-3.85-1.3-2.16-1.33-5.9-4.53-5.9-10.63 0-7.22 4.82-9.96 7.82-10.97 0-.28-.06-.56-.06-.84 0-5.95 4.1-12.17 9.5-14.4 6.32-2.64 13-1.35 17.86 3.46 1.44 1.4 2.6 3.14 3.55 5.04 1.25-.9 2.76-1.4 4.32-1.4 3.3 0 7.03 2.4 7.75 7.8 4.7 1.1 9.38 4.64 9.38 11.36 0 3.98-1.56 7.17-4.5 9.3l-1.57-2.24c2.23-1.57 3.37-3.98 3.37-7.06 0-6.77-5.77-8.5-8.24-8.9-.35-.06-.65-.28-.9-.56-.17-.28-.23-.62-.17-.96-.36-4.2-2.83-6.05-5.1-6.05-1.45 0-2.84.72-3.74 1.95-.3.4-.8.62-1.27.5-.54-.05-.96-.38-1.14-.9-.86-2.34-2.12-4.36-3.68-5.93-2-1.96-7.34-6.1-14.9-2.9-4.34 1.78-7.77 7.05-7.77 11.87zm36.2 21.67c0 4.6-3.73 8.3-8.36 8.3-4.58 0-8.3-3.7-8.3-8.3 0-4.6 3.72-8.3 8.3-8.3 4.62 0 8.35 3.7 8.35 8.3zm-2.77 0c0-3.08-2.46-5.6-5.6-5.6-3.06 0-5.58 2.52-5.58 5.6 0 3.08 2.52 5.54 5.6 5.54 3.12 0 5.58-2.45 5.58-5.53zm11.73 13.95l-6.67-6c-.48.56-.96 1.12-1.44 1.63l6.66 6c.42.44 1.14.38 1.5-.06.43-.46.37-1.14-.05-1.58z" stroke="#000" stroke-opacity="0" fill="#fff"/><g><use xlink:href="#w" transform="matrix(1,0,0,1,187.39356359276235,521.810377609424) translate(31.4 13.655555555555555)"/></g><path d="M969.08 248.07l-8.4-8.3-11.87 27.3 11.87 27.3 8.4-8.3v-38z" fill="#2e73b8"/><path d="M945.95 301.1l14.72-6.72v-54.6l-14.72-6.73-17.48 34.03 17.48 34.04z" fill="#5294cf"/><path d="M924.9 301.1h21.05v-68.05H924.9l-12.6 34.03 12.6 34.04z" fill="#2e73b8"/><path d="M910.2 294.38l14.7 6.74v-68.07l-14.7 6.74-6.52 27.28 6.52 27.3z" fill="#205b99"/><path d="M901.78 286.05l8.4 8.3v-54.58l-8.4 8.3v37.98z" fill="#19486f"/><g><use xlink:href="#x" transform="matrix(1,0,0,1,901.7792156158869,301.114996256549) translate(5.503086419753089 12.444444444444443)"/><use xlink:href="#y" transform="matrix(1,0,0,1,901.7792156158869,301.114996256549) translate(17.62345679012346 31.111111111111107)"/></g><path d="M305.3 469.1h366.66" stroke="#3a414a" fill="none"/><path d="M305.3 469.6h-.5v-1h.5z" stroke="#3a414a" stroke-width=".05" fill="#3a414a"/><path d="M686.73 469.1l-14.27 4.65v-9.27z" stroke="#3a414a" fill="#3a414a"/><g><use xlink:href="#z" transform="matrix(1,0,0,1,387.82841024062407,446.44590127290525) translate(0 12.444444444444446)"/><use xlink:href="#A" transform="matrix(1,0,0,1,387.82841024062407,446.44590127290525) translate(49.21604938271605 12.444444444444446)"/><use xlink:href="#B" transform="matrix(1,0,0,1,387.82841024062407,446.44590127290525) translate(66.5 12.444444444444446)"/><use xlink:href="#C" transform="matrix(1,0,0,1,387.82841024062407,446.44590127290525) translate(89.83333333333334 12.444444444444446)"/><use xlink:href="#D" transform="matrix(1,0,0,1,387.82841024062407,446.44590127290525) translate(107.11728395061729 12.444444444444446)"/><use xlink:href="#E" transform="matrix(1,0,0,1,387.82841024062407,446.44590127290525) translate(159.70370370370372 12.444444444444446)"/></g><path d="M820.67 161.8a6 6 0 0 1 6-6h228a6 6 0 0 1 6 6v104.66a6 6 0 0 1-6 6h-228a6 6 0 0 1-6-6z" stroke="#000" stroke-opacity="0" fill="#fff" fill-opacity="0"/><g><use xlink:href="#F" transform="matrix(1,0,0,1,825.6744096697432,160.79588519487407) translate(3.6481481481481524 45.88194444444444)"/><use xlink:href="#G" transform="matrix(1,0,0,1,825.6744096697432,160.79588519487407) translate(44.26543209876543 45.88194444444444)"/><use xlink:href="#H" transform="matrix(1,0,0,1,825.6744096697432,160.79588519487407) translate(82.24691358024691 45.88194444444444)"/><use xlink:href="#I" transform="matrix(1,0,0,1,825.6744096697432,160.79588519487407) translate(99.53086419753086 45.88194444444444)"/><use xlink:href="#J" transform="matrix(1,0,0,1,825.6744096697432,160.79588519487407) translate(145.29012345679013 45.88194444444444)"/><use xlink:href="#K" transform="matrix(1,0,0,1,825.6744096697432,160.79588519487407) translate(38.216049382716065 64.54861111111111)"/><use xlink:href="#L" transform="matrix(1,0,0,1,825.6744096697432,160.79588519487407) translate(78.79012345679013 64.54861111111111)"/><use xlink:href="#M" transform="matrix(1,0,0,1,825.6744096697432,160.79588519487407) translate(101.21604938271605 64.54861111111111)"/><use xlink:href="#N" transform="matrix(1,0,0,1,825.6744096697432,160.79588519487407) translate(161.62345679012344 64.54861111111111)"/></g><defs><path fill="#232f3e" d="M205 0l-28-72H64L36 0H1l101-248h38L239 0h-34zm-38-99l-47-123c-12 45-31 82-46 123h93" id="O"/><path fill="#232f3e" d="M266 0h-40l-56-210L115 0H75L2-248h35L96-30l15-64 43-154h32l59 218 59-218h35" id="P"/><path fill="#232f3e" d="M185-189c-5-48-123-54-124 2 14 75 158 14 163 119 3 78-121 87-175 55-17-10-28-26-33-46l33-7c5 56 141 63 141-1 0-78-155-14-162-118-5-82 145-84 179-34 5 7 8 16 11 25" id="Q"/><g id="a"><use transform="matrix(0.05,0,0,0.05,0,0)" xlink:href="#O"/><use transform="matrix(0.05,0,0,0.05,11.35,0)" xlink:href="#P"/><use transform="matrix(0.05,0,0,0.05,28.299999999999997,0)" xlink:href="#Q"/></g><path fill="#232f3e" d="M212-179c-10-28-35-45-73-45-59 0-87 40-87 99 0 60 29 101 89 101 43 0 62-24 78-52l27 14C228-24 195 4 139 4 59 4 22-46 18-125c-6-104 99-153 187-111 19 9 31 26 39 46" id="R"/><path fill="#232f3e" d="M24 0v-261h32V0H24" id="S"/><path fill="#232f3e" d="M100-194c62-1 85 37 85 99 1 63-27 99-86 99S16-35 15-95c0-66 28-99 85-99zM99-20c44 1 53-31 53-75 0-43-8-75-51-75s-53 32-53 75 10 74 51 75" id="T"/><path fill="#232f3e" d="M84 4C-5 8 30-112 23-190h32v120c0 31 7 50 39 49 72-2 45-101 50-169h31l1 190h-30c-1-10 1-25-2-33-11 22-28 36-60 37" id="U"/><path fill="#232f3e" d="M85-194c31 0 48 13 60 33l-1-100h32l1 261h-30c-2-10 0-23-3-31C134-8 116 4 85 4 32 4 16-35 15-94c0-66 23-100 70-100zm9 24c-40 0-46 34-46 75 0 40 6 74 45 74 42 0 51-32 51-76 0-42-9-74-50-73" id="V"/><g id="b"><use transform="matrix(0.05,0,0,0.05,0,0)" xlink:href="#R"/><use transform="matrix(0.05,0,0,0.05,12.950000000000001,0)" xlink:href="#S"/><use transform="matrix(0.05,0,0,0.05,16.900000000000002,0)" xlink:href="#T"/><use transform="matrix(0.05,0,0,0.05,26.900000000000002,0)" xlink:href="#U"/><use transform="matrix(0.05,0,0,0.05,36.900000000000006,0)" xlink:href="#V"/></g><path d="M212-179c-10-28-35-45-73-45-59 0-87 40-87 99 0 60 29 101 89 101 43 0 62-24 78-52l27 14C228-24 195 4 139 4 59 4 22-46 18-125c-6-104 99-153 187-111 19 9 31 26 39 46" id="W"/><path d="M106-169C34-169 62-67 57 0H25v-261h32l-1 103c12-21 28-36 61-36 89 0 53 116 60 194h-32v-121c2-32-8-49-39-48" id="X"/><path d="M100-194c63 0 86 42 84 106H49c0 40 14 67 53 68 26 1 43-12 49-29l28 8c-11 28-37 45-77 45C44 4 14-33 15-96c1-61 26-98 85-98zm52 81c6-60-76-77-97-28-3 7-6 17-6 28h103" id="Y"/><path d="M96-169c-40 0-48 33-48 73s9 75 48 75c24 0 41-14 43-38l32 2c-6 37-31 61-74 61-59 0-76-41-82-99-10-93 101-131 147-64 4 7 5 14 7 22l-32 3c-4-21-16-35-41-35" id="Z"/><path d="M143 0L79-87 56-68V0H24v-261h32v163l83-92h37l-77 82L181 0h-38" id="aa"/><g id="c"><use transform="matrix(0.04320987654320987,0,0,0.04320987654320987,0,0)" xlink:href="#W"/><use transform="matrix(0.04320987654320987,0,0,0.04320987654320987,11.191358024691356,0)" xlink:href="#X"/><use transform="matrix(0.04320987654320987,0,0,0.04320987654320987,19.83333333333333,0)" xlink:href="#Y"/><use transform="matrix(0.04320987654320987,0,0,0.04320987654320987,28.475308641975303,0)" xlink:href="#Z"/><use transform="matrix(0.04320987654320987,0,0,0.04320987654320987,36.25308641975308,0)" xlink:href="#aa"/></g><path d="M24-231v-30h32v30H24zM24 0v-190h32V0H24" id="ab"/><path d="M101-234c-31-9-42 10-38 44h38v23H63V0H32v-167H5v-23h27c-7-52 17-82 69-68v24" id="ac"/><g id="d"><use transform="matrix(0.04320987654320987,0,0,0.04320987654320987,0,0)" xlink:href="#ab"/><use transform="matrix(0.04320987654320987,0,0,0.04320987654320987,3.4135802469135794,0)" xlink:href="#ac"/></g><path d="M117-194c89-4 53 116 60 194h-32v-121c0-31-8-49-39-48C34-167 62-67 57 0H25l-1-190h30c1 10-1 24 2 32 11-22 29-35 61-36" id="ad"/><path d="M206 0h-36l-40-164L89 0H53L-1-190h32L70-26l43-164h34l41 164 42-164h31" id="ae"/><g id="e"><use transform="matrix(0.04320987654320987,0,0,0.04320987654320987,0,0)" xlink:href="#ad"/><use transform="matrix(0.04320987654320987,0,0,0.04320987654320987,8.641975308641973,0)" xlink:href="#Y"/><use transform="matrix(0.04320987654320987,0,0,0.04320987654320987,17.283950617283946,0)" xlink:href="#ae"/></g><path d="M114-163C36-179 61-72 57 0H25l-1-190h30c1 12-1 29 2 39 6-27 23-49 58-41v29" id="af"/><path d="M100-194c62-1 85 37 85 99 1 63-27 99-86 99S16-35 15-95c0-66 28-99 85-99zM99-20c44 1 53-31 53-75 0-43-8-75-51-75s-53 32-53 75 10 74 51 75" id="ag"/><path d="M33 0v-38h34V0H33" id="ah"/><g id="f"><use transform="matrix(0.04320987654320987,0,0,0.04320987654320987,0,0)" xlink:href="#Y"/><use transform="matrix(0.04320987654320987,0,0,0.04320987654320987,8.641975308641973,0)" xlink:href="#af"/><use transform="matrix(0.04320987654320987,0,0,0.04320987654320987,13.783950617283947,0)" xlink:href="#af"/><use transform="matrix(0.04320987654320987,0,0,0.04320987654320987,18.925925925925924,0)" xlink:href="#ag"/><use transform="matrix(0.04320987654320987,0,0,0.04320987654320987,27.5679012345679,0)" xlink:href="#af"/><use transform="matrix(0.04320987654320987,0,0,0.04320987654320987,31.845679012345677,0)" xlink:href="#ah"/></g><path d="M33 0v-248h34V0H33" id="ai"/><g id="g"><use transform="matrix(0.04320987654320987,0,0,0.04320987654320987,0,0)" xlink:href="#ai"/><use transform="matrix(0.04320987654320987,0,0,0.04320987654320987,4.320987654320986,0)" xlink:href="#ac"/></g><path d="M179-190L93 31C79 59 56 82 12 73V49c39 6 53-20 64-50L1-190h34L92-34l54-156h33" id="aj"/><path d="M135-143c-3-34-86-38-87 0 15 53 115 12 119 90S17 21 10-45l28-5c4 36 97 45 98 0-10-56-113-15-118-90-4-57 82-63 122-42 12 7 21 19 24 35" id="ak"/><path d="M68-38c1 34 0 65-14 84H32c9-13 17-26 17-46H33v-38h35" id="al"/><g id="h"><use transform="matrix(0.04320987654320987,0,0,0.04320987654320987,0,0)" xlink:href="#aj"/><use transform="matrix(0.04320987654320987,0,0,0.04320987654320987,7.777777777777776,0)" xlink:href="#Y"/><use transform="matrix(0.04320987654320987,0,0,0.04320987654320987,16.41975308641975,0)" xlink:href="#ak"/><use transform="matrix(0.04320987654320987,0,0,0.04320987654320987,24.197530864197525,0)" xlink:href="#al"/></g><path d="M141-36C126-15 110 5 73 4 37 3 15-17 15-53c-1-64 63-63 125-63 3-35-9-54-41-54-24 1-41 7-42 31l-33-3c5-37 33-52 76-52 45 0 72 20 72 64v82c-1 20 7 32 28 27v20c-31 9-61-2-59-35zM48-53c0 20 12 33 32 33 41-3 63-29 60-74-43 2-92-5-92 41" id="am"/><path d="M24 0v-261h32V0H24" id="an"/><path d="M59-47c-2 24 18 29 38 22v24C64 9 27 4 27-40v-127H5v-23h24l9-43h21v43h35v23H59v120" id="ao"/><g id="i"><use transform="matrix(0.04320987654320987,0,0,0.04320987654320987,0,0)" xlink:href="#am"/><use transform="matrix(0.04320987654320987,0,0,0.04320987654320987,8.641975308641973,0)" xlink:href="#an"/><use transform="matrix(0.04320987654320987,0,0,0.04320987654320987,12.055555555555554,0)" xlink:href="#Y"/><use transform="matrix(0.04320987654320987,0,0,0.04320987654320987,20.697530864197525,0)" xlink:href="#af"/><use transform="matrix(0.04320987654320987,0,0,0.04320987654320987,25.8395061728395,0)" xlink:href="#ao"/></g><path d="M84 4C-5 8 30-112 23-190h32v120c0 31 7 50 39 49 72-2 45-101 50-169h31l1 190h-30c-1-10 1-25-2-33-11 22-28 36-60 37" id="ap"/><path d="M177-190C167-65 218 103 67 71c-23-6-38-20-44-43l32-5c15 47 100 32 89-28v-30C133-14 115 1 83 1 29 1 15-40 15-95c0-56 16-97 71-98 29-1 48 16 59 35 1-10 0-23 2-32h30zM94-22c36 0 50-32 50-73 0-42-14-75-50-75-39 0-46 34-46 75s6 73 46 73" id="aq"/><g id="j"><use transform="matrix(0.04320987654320987,0,0,0.04320987654320987,0,0)" xlink:href="#ao"/><use transform="matrix(0.04320987654320987,0,0,0.04320987654320987,4.320987654320986,0)" xlink:href="#X"/><use transform="matrix(0.04320987654320987,0,0,0.04320987654320987,12.962962962962958,0)" xlink:href="#af"/><use transform="matrix(0.04320987654320987,0,0,0.04320987654320987,18.104938271604933,0)" xlink:href="#ag"/><use transform="matrix(0.04320987654320987,0,0,0.04320987654320987,26.746913580246904,0)" xlink:href="#ap"/><use transform="matrix(0.04320987654320987,0,0,0.04320987654320987,35.38888888888888,0)" xlink:href="#aq"/><use transform="matrix(0.04320987654320987,0,0,0.04320987654320987,44.03086419753085,0)" xlink:href="#X"/></g><path d="M210-169c-67 3-38 105-44 169h-31v-121c0-29-5-50-35-48C34-165 62-65 56 0H25l-1-190h30c1 10-1 24 2 32 10-44 99-50 107 0 11-21 27-35 58-36 85-2 47 119 55 194h-31v-121c0-29-5-49-35-48" id="ar"/><g id="k"><use transform="matrix(0.04320987654320987,0,0,0.04320987654320987,0,0)" xlink:href="#Y"/><use transform="matrix(0.04320987654320987,0,0,0.04320987654320987,8.641975308641973,0)" xlink:href="#ar"/><use transform="matrix(0.04320987654320987,0,0,0.04320987654320987,21.56172839506172,0)" xlink:href="#am"/><use transform="matrix(0.04320987654320987,0,0,0.04320987654320987,30.2037037037037,0)" xlink:href="#ab"/><use transform="matrix(0.04320987654320987,0,0,0.04320987654320987,33.61728395061728,0)" xlink:href="#an"/></g><path d="M185-189c-5-48-123-54-124 2 14 75 158 14 163 119 3 78-121 87-175 55-17-10-28-26-33-46l33-7c5 56 141 63 141-1 0-78-155-14-162-118-5-82 145-84 179-34 5 7 8 16 11 25" id="as"/><path d="M126-127c33 6 58 20 58 59 0 88-139 92-164 29-3-8-5-16-6-25l32-3c6 27 21 44 54 44 32 0 52-15 52-46 0-38-36-46-79-43v-28c39 1 72-4 72-42 0-27-17-43-46-43-28 0-47 15-49 41l-32-3c6-42 35-63 81-64 48-1 79 21 79 65 0 36-21 52-52 59" id="at"/><g id="l"><use transform="matrix(0.04320987654320985,0,0,0.04320987654320985,0,0)" xlink:href="#as"/><use transform="matrix(0.04320987654320985,0,0,0.04320987654320985,10.370370370370365,0)" xlink:href="#at"/></g><path d="M30 0v-248h33v221h125V0H30" id="au"/><g id="m"><use transform="matrix(0.04320987654320985,0,0,0.04320987654320985,0,0)" xlink:href="#au"/><use transform="matrix(0.04320987654320985,0,0,0.04320987654320985,8.641975308641971,0)" xlink:href="#ag"/><use transform="matrix(0.04320987654320985,0,0,0.04320987654320985,17.283950617283942,0)" xlink:href="#aq"/></g><path d="M160-131c35 5 61 23 61 61C221 17 115-2 30 0v-248c76 3 177-17 177 60 0 33-19 50-47 57zm-97-11c50-1 110 9 110-42 0-47-63-36-110-37v79zm0 115c55-2 124 14 124-45 0-56-70-42-124-44v89" id="av"/><g id="n"><use transform="matrix(0.04320987654320985,0,0,0.04320987654320985,0,0)" xlink:href="#av"/><use transform="matrix(0.04320987654320985,0,0,0.04320987654320985,10.370370370370365,0)" xlink:href="#ap"/><use transform="matrix(0.04320987654320985,0,0,0.04320987654320985,19.012345679012334,0)" xlink:href="#Z"/><use transform="matrix(0.04320987654320985,0,0,0.04320987654320985,26.790123456790106,0)" xlink:href="#aa"/><use transform="matrix(0.04320987654320985,0,0,0.04320987654320985,34.56790123456788,0)" xlink:href="#Y"/><use transform="matrix(0.04320987654320985,0,0,0.04320987654320985,43.209876543209845,0)" xlink:href="#ao"/></g><path d="M30 0v-248h187v28H63v79h144v27H63v87h162V0H30" id="aw"/><g id="o"><use transform="matrix(0.04320987654320987,0,0,0.04320987654320987,0,0)" xlink:href="#as"/><use transform="matrix(0.04320987654320987,0,0,0.04320987654320987,10.370370370370368,0)" xlink:href="#aw"/><use transform="matrix(0.04320987654320987,0,0,0.04320987654320987,20.740740740740737,0)" xlink:href="#as"/></g><path fill="#3a414a" d="M185-189c-5-48-123-54-124 2 14 75 158 14 163 119 3 78-121 87-175 55-17-10-28-26-33-46l33-7c5 56 141 63 141-1 0-78-155-14-162-118-5-82 145-84 179-34 5 7 8 16 11 25" id="ax"/><path fill="#3a414a" d="M100-194c63 0 86 42 84 106H49c0 40 14 67 53 68 26 1 43-12 49-29l28 8c-11 28-37 45-77 45C44 4 14-33 15-96c1-61 26-98 85-98zm52 81c6-60-76-77-97-28-3 7-6 17-6 28h103" id="ay"/><path fill="#3a414a" d="M114-163C36-179 61-72 57 0H25l-1-190h30c1 12-1 29 2 39 6-27 23-49 58-41v29" id="az"/><path fill="#3a414a" d="M108 0H70L1-190h34L89-25l56-165h34" id="aA"/><path fill="#3a414a" d="M24 0v-261h32V0H24" id="aB"/><path fill="#3a414a" d="M135-143c-3-34-86-38-87 0 15 53 115 12 119 90S17 21 10-45l28-5c4 36 97 45 98 0-10-56-113-15-118-90-4-57 82-63 122-42 12 7 21 19 24 35" id="aC"/><g id="p"><use transform="matrix(0.06172839506172839,0,0,0.06172839506172839,0,0)" xlink:href="#ax"/><use transform="matrix(0.06172839506172839,0,0,0.06172839506172839,14.814814814814813,0)" xlink:href="#ay"/><use transform="matrix(0.06172839506172839,0,0,0.06172839506172839,27.160493827160494,0)" xlink:href="#az"/><use transform="matrix(0.06172839506172839,0,0,0.06172839506172839,34.50617283950617,0)" xlink:href="#aA"/><use transform="matrix(0.06172839506172839,0,0,0.06172839506172839,45.61728395061728,0)" xlink:href="#ay"/><use transform="matrix(0.06172839506172839,0,0,0.06172839506172839,57.962962962962955,0)" xlink:href="#az"/><use transform="matrix(0.06172839506172839,0,0,0.06172839506172839,65.30864197530863,0)" xlink:href="#aB"/><use transform="matrix(0.06172839506172839,0,0,0.06172839506172839,70.18518518518518,0)" xlink:href="#ay"/><use transform="matrix(0.06172839506172839,0,0,0.06172839506172839,82.53086419753086,0)" xlink:href="#aC"/><use transform="matrix(0.06172839506172839,0,0,0.06172839506172839,93.64197530864197,0)" xlink:href="#aC"/></g><path fill="#3a414a" d="M240 0l2-218c-23 76-54 145-80 218h-23L58-218 59 0H30v-248h44l77 211c21-75 51-140 76-211h43V0h-30" id="aD"/><path fill="#3a414a" d="M141-36C126-15 110 5 73 4 37 3 15-17 15-53c-1-64 63-63 125-63 3-35-9-54-41-54-24 1-41 7-42 31l-33-3c5-37 33-52 76-52 45 0 72 20 72 64v82c-1 20 7 32 28 27v20c-31 9-61-2-59-35zM48-53c0 20 12 33 32 33 41-3 63-29 60-74-43 2-92-5-92 41" id="aE"/><path fill="#3a414a" d="M117-194c89-4 53 116 60 194h-32v-121c0-31-8-49-39-48C34-167 62-67 57 0H25l-1-190h30c1 10-1 24 2 32 11-22 29-35 61-36" id="aF"/><path fill="#3a414a" d="M177-190C167-65 218 103 67 71c-23-6-38-20-44-43l32-5c15 47 100 32 89-28v-30C133-14 115 1 83 1 29 1 15-40 15-95c0-56 16-97 71-98 29-1 48 16 59 35 1-10 0-23 2-32h30zM94-22c36 0 50-32 50-73 0-42-14-75-50-75-39 0-46 34-46 75s6 73 46 73" id="aG"/><path fill="#3a414a" d="M85-194c31 0 48 13 60 33l-1-100h32l1 261h-30c-2-10 0-23-3-31C134-8 116 4 85 4 32 4 16-35 15-94c0-66 23-100 70-100zm9 24c-40 0-46 34-46 75 0 40 6 74 45 74 42 0 51-32 51-76 0-42-9-74-50-73" id="aH"/><g id="q"><use transform="matrix(0.06172839506172839,0,0,0.06172839506172839,0,0)" xlink:href="#aD"/><use transform="matrix(0.06172839506172839,0,0,0.06172839506172839,18.456790123456788,0)" xlink:href="#aE"/><use transform="matrix(0.06172839506172839,0,0,0.06172839506172839,30.80246913580247,0)" xlink:href="#aF"/><use transform="matrix(0.06172839506172839,0,0,0.06172839506172839,43.148148148148145,0)" xlink:href="#aE"/><use transform="matrix(0.06172839506172839,0,0,0.06172839506172839,55.49382716049382,0)" xlink:href="#aG"/><use transform="matrix(0.06172839506172839,0,0,0.06172839506172839,67.8395061728395,0)" xlink:href="#ay"/><use transform="matrix(0.06172839506172839,0,0,0.06172839506172839,80.18518518518519,0)" xlink:href="#aH"/></g><path fill="#3a414a" d="M30 0v-248h187v28H63v79h144v27H63v87h162V0H30" id="aI"/><path fill="#3a414a" d="M127-220V0H93v-220H8v-28h204v28h-85" id="aJ"/><path fill="#3a414a" d="M30 0v-248h33v221h125V0H30" id="aK"/><g id="r"><use transform="matrix(0.06172839506172839,0,0,0.06172839506172839,0,0)" xlink:href="#aI"/><use transform="matrix(0.06172839506172839,0,0,0.06172839506172839,14.814814814814813,0)" xlink:href="#aJ"/><use transform="matrix(0.06172839506172839,0,0,0.06172839506172839,28.33333333333333,0)" xlink:href="#aK"/></g><path fill="#3a414a" d="M30-248c87 1 191-15 191 75 0 78-77 80-158 76V0H30v-248zm33 125c57 0 124 11 124-50 0-59-68-47-124-48v98" id="aL"/><path fill="#3a414a" d="M24-231v-30h32v30H24zM24 0v-190h32V0H24" id="aM"/><path fill="#3a414a" d="M115-194c55 1 70 41 70 98S169 2 115 4C84 4 66-9 55-30l1 105H24l-1-265h31l2 30c10-21 28-34 59-34zm-8 174c40 0 45-34 45-75s-6-73-45-74c-42 0-51 32-51 76 0 43 10 73 51 73" id="aN"/><g id="s"><use transform="matrix(0.06172839506172839,0,0,0.06172839506172839,0,0)" xlink:href="#aL"/><use transform="matrix(0.06172839506172839,0,0,0.06172839506172839,14.814814814814813,0)" xlink:href="#aM"/><use transform="matrix(0.06172839506172839,0,0,0.06172839506172839,19.691358024691354,0)" xlink:href="#aN"/><use transform="matrix(0.06172839506172839,0,0,0.06172839506172839,32.03703703703703,0)" xlink:href="#ay"/><use transform="matrix(0.06172839506172839,0,0,0.06172839506172839,44.38271604938271,0)" xlink:href="#aB"/><use transform="matrix(0.06172839506172839,0,0,0.06172839506172839,49.25925925925925,0)" xlink:href="#aM"/><use transform="matrix(0.06172839506172839,0,0,0.06172839506172839,54.1358024691358,0)" xlink:href="#aF"/><use transform="matrix(0.06172839506172839,0,0,0.06172839506172839,66.48148148148148,0)" xlink:href="#ay"/></g><path d="M127-220V0H93v-220H8v-28h204v28h-85" id="aO"/><g id="t"><use transform="matrix(0.04320987654320987,0,0,0.04320987654320987,0,0)" xlink:href="#aO"/><use transform="matrix(0.04320987654320987,0,0,0.04320987654320987,8.901234567901232,0)" xlink:href="#af"/><use transform="matrix(0.04320987654320987,0,0,0.04320987654320987,14.043209876543207,0)" xlink:href="#ab"/><use transform="matrix(0.04320987654320987,0,0,0.04320987654320987,17.456790123456788,0)" xlink:href="#aq"/><use transform="matrix(0.04320987654320987,0,0,0.04320987654320987,26.09876543209876,0)" xlink:href="#aq"/><use transform="matrix(0.04320987654320987,0,0,0.04320987654320987,34.74074074074073,0)" xlink:href="#Y"/><use transform="matrix(0.04320987654320987,0,0,0.04320987654320987,43.38271604938271,0)" xlink:href="#af"/><use transform="matrix(0.04320987654320987,0,0,0.04320987654320987,48.52469135802468,0)" xlink:href="#ak"/></g><path d="M141 0L90-78 38 0H4l68-98-65-92h35l48 74 47-74h35l-64 92 68 98h-35" id="aP"/><path d="M115-194c55 1 70 41 70 98S169 2 115 4C84 4 66-9 55-30l1 105H24l-1-265h31l2 30c10-21 28-34 59-34zm-8 174c40 0 45-34 45-75s-6-73-45-74c-42 0-51 32-51 76 0 43 10 73 51 73" id="aQ"/><g id="u"><use transform="matrix(0.04320987654320987,0,0,0.04320987654320987,0,0)" xlink:href="#aw"/><use transform="matrix(0.04320987654320987,0,0,0.04320987654320987,10.370370370370368,0)" xlink:href="#aP"/><use transform="matrix(0.04320987654320987,0,0,0.04320987654320987,18.148148148148145,0)" xlink:href="#aQ"/><use transform="matrix(0.04320987654320987,0,0,0.04320987654320987,26.790123456790116,0)" xlink:href="#ag"/><use transform="matrix(0.04320987654320987,0,0,0.04320987654320987,35.432098765432094,0)" xlink:href="#af"/><use transform="matrix(0.04320987654320987,0,0,0.04320987654320987,40.57407407407407,0)" xlink:href="#ao"/></g><linearGradient gradientUnits="userSpaceOnUse" id="v" x1="217.39" y1="512.81" x2="304.79" y2="425.41"><stop offset="0%" stop-color="#b0084d"/><stop offset="100%" stop-color="#ff4f8b"/></linearGradient><path d="M85-194c31 0 48 13 60 33l-1-100h32l1 261h-30c-2-10 0-23-3-31C134-8 116 4 85 4 32 4 16-35 15-94c0-66 23-100 70-100zm9 24c-40 0-46 34-46 75 0 40 6 74 45 74 42 0 51-32 51-76 0-42-9-74-50-73" id="aR"/><path d="M266 0h-40l-56-210L115 0H75L2-248h35L96-30l15-64 43-154h32l59 218 59-218h35" id="aS"/><g id="w"><use transform="matrix(0.043827160493827164,0,0,0.043827160493827164,0,0)" xlink:href="#W"/><use transform="matrix(0.043827160493827164,0,0,0.043827160493827164,11.351234567901235,0)" xlink:href="#an"/><use transform="matrix(0.043827160493827164,0,0,0.043827160493827164,14.813580246913581,0)" xlink:href="#ag"/><use transform="matrix(0.043827160493827164,0,0,0.043827160493827164,23.579012345679008,0)" xlink:href="#ap"/><use transform="matrix(0.043827160493827164,0,0,0.043827160493827164,32.34444444444444,0)" xlink:href="#aR"/><use transform="matrix(0.043827160493827164,0,0,0.043827160493827164,41.10987654320987,0)" xlink:href="#aS"/><use transform="matrix(0.043827160493827164,0,0,0.043827160493827164,55.39753086419753,0)" xlink:href="#am"/><use transform="matrix(0.043827160493827164,0,0,0.043827160493827164,64.16296296296296,0)" xlink:href="#ao"/><use transform="matrix(0.043827160493827164,0,0,0.043827160493827164,68.54567901234569,0)" xlink:href="#Z"/><use transform="matrix(0.043827160493827164,0,0,0.043827160493827164,76.43456790123457,0)" xlink:href="#X"/></g><path d="M205 0l-28-72H64L36 0H1l101-248h38L239 0h-34zm-38-99l-47-123c-12 45-31 82-46 123h93" id="aT"/><path d="M9 0v-24l116-142H16v-24h144v24L44-24h123V0H9" id="aU"/><g id="x"><use transform="matrix(0.04320987654320987,0,0,0.04320987654320987,0,0)" xlink:href="#aT"/><use transform="matrix(0.04320987654320987,0,0,0.04320987654320987,10.370370370370368,0)" xlink:href="#ar"/><use transform="matrix(0.04320987654320987,0,0,0.04320987654320987,23.29012345679012,0)" xlink:href="#am"/><use transform="matrix(0.04320987654320987,0,0,0.04320987654320987,31.932098765432098,0)" xlink:href="#aU"/><use transform="matrix(0.04320987654320987,0,0,0.04320987654320987,39.70987654320987,0)" xlink:href="#ag"/><use transform="matrix(0.04320987654320987,0,0,0.04320987654320987,48.351851851851855,0)" xlink:href="#ad"/></g><path d="M233-177c-1 41-23 64-60 70L243 0h-38l-65-103H63V0H30v-248c88 3 205-21 203 71zM63-129c60-2 137 13 137-47 0-61-80-42-137-45v92" id="aV"/><path d="M30-248c118-7 216 8 213 122C240-48 200 0 122 0H30v-248zM63-27c89 8 146-16 146-99s-60-101-146-95v194" id="aW"/><g id="y"><use transform="matrix(0.04320987654320987,0,0,0.04320987654320987,0,0)" xlink:href="#aV"/><use transform="matrix(0.04320987654320987,0,0,0.04320987654320987,11.191358024691356,0)" xlink:href="#aW"/><use transform="matrix(0.04320987654320987,0,0,0.04320987654320987,22.38271604938271,0)" xlink:href="#as"/></g><path fill="#333" d="M30 0v-248h187v28H63v79h144v27H63v87h162V0H30" id="aX"/><path fill="#333" d="M141 0L90-78 38 0H4l68-98-65-92h35l48 74 47-74h35l-64 92 68 98h-35" id="aY"/><path fill="#333" d="M115-194c55 1 70 41 70 98S169 2 115 4C84 4 66-9 55-30l1 105H24l-1-265h31l2 30c10-21 28-34 59-34zm-8 174c40 0 45-34 45-75s-6-73-45-74c-42 0-51 32-51 76 0 43 10 73 51 73" id="aZ"/><path fill="#333" d="M100-194c62-1 85 37 85 99 1 63-27 99-86 99S16-35 15-95c0-66 28-99 85-99zM99-20c44 1 53-31 53-75 0-43-8-75-51-75s-53 32-53 75 10 74 51 75" id="ba"/><path fill="#333" d="M114-163C36-179 61-72 57 0H25l-1-190h30c1 12-1 29 2 39 6-27 23-49 58-41v29" id="bb"/><path fill="#333" d="M59-47c-2 24 18 29 38 22v24C64 9 27 4 27-40v-127H5v-23h24l9-43h21v43h35v23H59v120" id="bc"/><g id="z"><use transform="matrix(0.04320987654320988,0,0,0.04320987654320988,0,0)" xlink:href="#aX"/><use transform="matrix(0.04320987654320988,0,0,0.04320987654320988,10.370370370370372,0)" xlink:href="#aY"/><use transform="matrix(0.04320987654320988,0,0,0.04320987654320988,18.148148148148152,0)" xlink:href="#aZ"/><use transform="matrix(0.04320987654320988,0,0,0.04320987654320988,26.790123456790127,0)" xlink:href="#ba"/><use transform="matrix(0.04320987654320988,0,0,0.04320987654320988,35.4320987654321,0)" xlink:href="#bb"/><use transform="matrix(0.04320987654320988,0,0,0.04320987654320988,40.574074074074076,0)" xlink:href="#bc"/></g><g id="A"><use transform="matrix(0.04320987654320988,0,0,0.04320987654320988,0,0)" xlink:href="#bc"/><use transform="matrix(0.04320987654320988,0,0,0.04320987654320988,4.320987654320988,0)" xlink:href="#ba"/></g><path fill="#333" d="M185-189c-5-48-123-54-124 2 14 75 158 14 163 119 3 78-121 87-175 55-17-10-28-26-33-46l33-7c5 56 141 63 141-1 0-78-155-14-162-118-5-82 145-84 179-34 5 7 8 16 11 25" id="bd"/><path fill="#333" d="M126-127c33 6 58 20 58 59 0 88-139 92-164 29-3-8-5-16-6-25l32-3c6 27 21 44 54 44 32 0 52-15 52-46 0-38-36-46-79-43v-28c39 1 72-4 72-42 0-27-17-43-46-43-28 0-47 15-49 41l-32-3c6-42 35-63 81-64 48-1 79 21 79 65 0 36-21 52-52 59" id="be"/><g id="B"><use transform="matrix(0.04320987654320988,0,0,0.04320987654320988,0,0)" xlink:href="#bd"/><use transform="matrix(0.04320987654320988,0,0,0.04320987654320988,10.370370370370372,0)" xlink:href="#be"/></g><path fill="#333" d="M141-36C126-15 110 5 73 4 37 3 15-17 15-53c-1-64 63-63 125-63 3-35-9-54-41-54-24 1-41 7-42 31l-33-3c5-37 33-52 76-52 45 0 72 20 72 64v82c-1 20 7 32 28 27v20c-31 9-61-2-59-35zM48-53c0 20 12 33 32 33 41-3 63-29 60-74-43 2-92-5-92 41" id="bf"/><g id="C"><use transform="matrix(0.04320987654320988,0,0,0.04320987654320988,0,0)" xlink:href="#bf"/><use transform="matrix(0.04320987654320988,0,0,0.04320987654320988,8.641975308641976,0)" xlink:href="#bc"/></g><path fill="#333" d="M100-194c63 0 86 42 84 106H49c0 40 14 67 53 68 26 1 43-12 49-29l28 8c-11 28-37 45-77 45C44 4 14-33 15-96c1-61 26-98 85-98zm52 81c6-60-76-77-97-28-3 7-6 17-6 28h103" id="bg"/><path fill="#333" d="M177-190C167-65 218 103 67 71c-23-6-38-20-44-43l32-5c15 47 100 32 89-28v-30C133-14 115 1 83 1 29 1 15-40 15-95c0-56 16-97 71-98 29-1 48 16 59 35 1-10 0-23 2-32h30zM94-22c36 0 50-32 50-73 0-42-14-75-50-75-39 0-46 34-46 75s6 73 46 73" id="bh"/><path fill="#333" d="M84 4C-5 8 30-112 23-190h32v120c0 31 7 50 39 49 72-2 45-101 50-169h31l1 190h-30c-1-10 1-25-2-33-11 22-28 36-60 37" id="bi"/><path fill="#333" d="M24 0v-261h32V0H24" id="bj"/><g id="D"><use transform="matrix(0.04320987654320988,0,0,0.04320987654320988,0,0)" xlink:href="#bb"/><use transform="matrix(0.04320987654320988,0,0,0.04320987654320988,5.1419753086419755,0)" xlink:href="#bg"/><use transform="matrix(0.04320987654320988,0,0,0.04320987654320988,13.783950617283953,0)" xlink:href="#bh"/><use transform="matrix(0.04320987654320988,0,0,0.04320987654320988,22.425925925925934,0)" xlink:href="#bi"/><use transform="matrix(0.04320987654320988,0,0,0.04320987654320988,31.067901234567906,0)" xlink:href="#bj"/><use transform="matrix(0.04320987654320988,0,0,0.04320987654320988,34.48148148148149,0)" xlink:href="#bf"/><use transform="matrix(0.04320987654320988,0,0,0.04320987654320988,43.12345679012346,0)" xlink:href="#bb"/></g><path fill="#333" d="M24-231v-30h32v30H24zM24 0v-190h32V0H24" id="bk"/><path fill="#333" d="M117-194c89-4 53 116 60 194h-32v-121c0-31-8-49-39-48C34-167 62-67 57 0H25l-1-190h30c1 10-1 24 2 32 11-22 29-35 61-36" id="bl"/><path fill="#333" d="M108 0H70L1-190h34L89-25l56-165h34" id="bm"/><path fill="#333" d="M135-143c-3-34-86-38-87 0 15 53 115 12 119 90S17 21 10-45l28-5c4 36 97 45 98 0-10-56-113-15-118-90-4-57 82-63 122-42 12 7 21 19 24 35" id="bn"/><g id="E"><use transform="matrix(0.04320987654320988,0,0,0.04320987654320988,0,0)" xlink:href="#bk"/><use transform="matrix(0.04320987654320988,0,0,0.04320987654320988,3.4135802469135808,0)" xlink:href="#bl"/><use transform="matrix(0.04320987654320988,0,0,0.04320987654320988,12.055555555555557,0)" xlink:href="#bc"/><use transform="matrix(0.04320987654320988,0,0,0.04320987654320988,16.376543209876544,0)" xlink:href="#bg"/><use transform="matrix(0.04320987654320988,0,0,0.04320987654320988,25.018518518518523,0)" xlink:href="#bb"/><use transform="matrix(0.04320987654320988,0,0,0.04320987654320988,30.160493827160494,0)" xlink:href="#bm"/><use transform="matrix(0.04320987654320988,0,0,0.04320987654320988,37.93827160493827,0)" xlink:href="#bf"/><use transform="matrix(0.04320987654320988,0,0,0.04320987654320988,46.58024691358024,0)" xlink:href="#bj"/><use transform="matrix(0.04320987654320988,0,0,0.04320987654320988,49.99382716049383,0)" xlink:href="#bn"/></g><path d="M194 0L95-120 63-95V0H30v-248h33v124l119-124h40L117-140 236 0h-42" id="bo"/><g id="F"><use transform="matrix(0.04320987654320987,0,0,0.04320987654320987,0,0)" xlink:href="#bo"/><use transform="matrix(0.04320987654320987,0,0,0.04320987654320987,10.370370370370368,0)" xlink:href="#Y"/><use transform="matrix(0.04320987654320987,0,0,0.04320987654320987,19.01234567901234,0)" xlink:href="#Y"/><use transform="matrix(0.04320987654320987,0,0,0.04320987654320987,27.654320987654316,0)" xlink:href="#aQ"/></g><g id="G"><use transform="matrix(0.04320987654320987,0,0,0.04320987654320987,0,0)" xlink:href="#ao"/><use transform="matrix(0.04320987654320987,0,0,0.04320987654320987,4.320987654320986,0)" xlink:href="#af"/><use transform="matrix(0.04320987654320987,0,0,0.04320987654320987,9.462962962962962,0)" xlink:href="#am"/><use transform="matrix(0.04320987654320987,0,0,0.04320987654320987,18.104938271604937,0)" xlink:href="#Z"/><use transform="matrix(0.04320987654320987,0,0,0.04320987654320987,25.88271604938271,0)" xlink:href="#aa"/></g><g id="H"><use transform="matrix(0.04320987654320987,0,0,0.04320987654320987,0,0)" xlink:href="#ag"/><use transform="matrix(0.04320987654320987,0,0,0.04320987654320987,8.641975308641973,0)" xlink:href="#ac"/></g><g id="I"><use transform="matrix(0.04320987654320987,0,0,0.04320987654320987,0,0)" xlink:href="#ap"/><use transform="matrix(0.04320987654320987,0,0,0.04320987654320987,8.641975308641973,0)" xlink:href="#ak"/><use transform="matrix(0.04320987654320987,0,0,0.04320987654320987,16.41975308641975,0)" xlink:href="#Y"/><use transform="matrix(0.04320987654320987,0,0,0.04320987654320987,25.061728395061724,0)" xlink:href="#ac"/><use transform="matrix(0.04320987654320987,0,0,0.04320987654320987,29.382716049382708,0)" xlink:href="#ap"/><use transform="matrix(0.04320987654320987,0,0,0.04320987654320987,38.02469135802468,0)" xlink:href="#an"/></g><g id="J"><use transform="matrix(0.04320987654320987,0,0,0.04320987654320987,0,0)" xlink:href="#ab"/><use transform="matrix(0.04320987654320987,0,0,0.04320987654320987,3.4135802469135794,0)" xlink:href="#ad"/><use transform="matrix(0.04320987654320987,0,0,0.04320987654320987,12.055555555555554,0)" xlink:href="#ac"/><use transform="matrix(0.04320987654320987,0,0,0.04320987654320987,16.376543209876537,0)" xlink:href="#ag"/><use transform="matrix(0.04320987654320987,0,0,0.04320987654320987,25.018518518518512,0)" xlink:href="#af"/><use transform="matrix(0.04320987654320987,0,0,0.04320987654320987,30.160493827160487,0)" xlink:href="#ar"/><use transform="matrix(0.04320987654320987,0,0,0.04320987654320987,43.08024691358024,0)" xlink:href="#am"/><use transform="matrix(0.04320987654320987,0,0,0.04320987654320987,51.722222222222214,0)" xlink:href="#ao"/><use transform="matrix(0.04320987654320987,0,0,0.04320987654320987,56.043209876543195,0)" xlink:href="#ab"/><use transform="matrix(0.04320987654320987,0,0,0.04320987654320987,59.456790123456784,0)" xlink:href="#ag"/><use transform="matrix(0.04320987654320987,0,0,0.04320987654320987,68.09876543209876,0)" xlink:href="#ad"/><use transform="matrix(0.04320987654320987,0,0,0.04320987654320987,76.74074074074073,0)" xlink:href="#ah"/></g><path d="M232-93c-1 65-40 97-104 97C67 4 28-28 28-90v-158h33c8 89-33 224 67 224 102 0 64-133 71-224h33v155" id="bp"/><g id="K"><use transform="matrix(0.04320987654320987,0,0,0.04320987654320987,0,0)" xlink:href="#bp"/><use transform="matrix(0.04320987654320987,0,0,0.04320987654320987,11.191358024691356,0)" xlink:href="#ak"/><use transform="matrix(0.04320987654320987,0,0,0.04320987654320987,18.969135802469133,0)" xlink:href="#Y"/><use transform="matrix(0.04320987654320987,0,0,0.04320987654320987,27.611111111111104,0)" xlink:href="#aR"/></g><g id="L"><use transform="matrix(0.04320987654320987,0,0,0.04320987654320987,0,0)" xlink:href="#ac"/><use transform="matrix(0.04320987654320987,0,0,0.04320987654320987,4.320987654320986,0)" xlink:href="#ag"/><use transform="matrix(0.04320987654320987,0,0,0.04320987654320987,12.962962962962958,0)" xlink:href="#af"/></g><g id="M"><use transform="matrix(0.04320987654320987,0,0,0.04320987654320987,0,0)" xlink:href="#am"/><use transform="matrix(0.04320987654320987,0,0,0.04320987654320987,8.641975308641973,0)" xlink:href="#ad"/><use transform="matrix(0.04320987654320987,0,0,0.04320987654320987,17.283950617283946,0)" xlink:href="#am"/><use transform="matrix(0.04320987654320987,0,0,0.04320987654320987,25.925925925925917,0)" xlink:href="#an"/><use transform="matrix(0.04320987654320987,0,0,0.04320987654320987,29.339506172839496,0)" xlink:href="#aj"/><use transform="matrix(0.04320987654320987,0,0,0.04320987654320987,37.11728395061727,0)" xlink:href="#ak"/><use transform="matrix(0.04320987654320987,0,0,0.04320987654320987,44.89506172839505,0)" xlink:href="#ab"/><use transform="matrix(0.04320987654320987,0,0,0.04320987654320987,48.30864197530863,0)" xlink:href="#ak"/></g><g id="N"><use transform="matrix(0.04320987654320987,0,0,0.04320987654320987,0,0)" xlink:href="#an"/><use transform="matrix(0.04320987654320987,0,0,0.04320987654320987,3.4135802469135794,0)" xlink:href="#am"/><use transform="matrix(0.04320987654320987,0,0,0.04320987654320987,12.055555555555554,0)" xlink:href="#ao"/><use transform="matrix(0.04320987654320987,0,0,0.04320987654320987,16.376543209876537,0)" xlink:href="#Y"/><use transform="matrix(0.04320987654320987,0,0,0.04320987654320987,25.018518518518512,0)" xlink:href="#af"/></g></defs></g></svg>