<svg xmlns="http://www.w3.org/2000/svg" xmlns:xlink="http://www.w3.org/1999/xlink" xmlns:lucid="lucid" width="2243" height="863"><g transform="translate(-118.5 1181.5)" lucid:page-tab-id="0_0"><path d="M140-1154a6 6 0 0 1 6-6h1548a6 6 0 0 1 6 6v808a6 6 0 0 1-6 6H146a6 6 0 0 1-6-6z" stroke="#232f3e" stroke-width="3" fill="#fff" fill-opacity="0"/><path d="M140-1160h56v56h-56v-56z" stroke="#fff" stroke-opacity="0" fill="#232f3e"/><path d="M180.88-1118.78h-25c-4.13.05-7.57-3.1-7.9-7.2v-.64c-.15-3.4 1.97-6.38 5.25-7.36v-.66c.12-4.22 2.44-7.75 6.24-9.57 4.13-1.86 8.73-.96 11.8 2.3 1.1 1.1 1.85 2.2 2.45 3.6 1.2-1 2.72-1.32 4.24-.9 2.24.8 3.68 2.74 3.76 5.1 3.68.65 6.32 3.8 6.28 7.56 0 7.07-7.04 7.73-7.12 7.76zm-26.7-13.88c-2.83.6-4.75 3.14-4.6 6.04v.53c.3 3.33 3.1 5.84 6.4 5.76h24.98c3.04-.3 5.4-2.64 5.68-5.7.28-3.43-2.24-6.5-5.68-6.78-.44-.05-.72-.45-.64-.87.08-1.83-1-3.44-2.72-4.13-1.32-.37-2.64.13-3.44 1.24-.2.25-.44.38-.76.33-.28-.05-.48-.24-.6-.5-.6-1.6-1.4-2.85-2.6-4.04-2.7-2.8-6.6-3.6-10.13-2-3.24 1.6-5.2 4.63-5.32 8.24-.04.4-.04.74 0 1.14.04.4-.2.76-.6.84z" stroke="#fff" stroke-opacity="0" fill="#fff"/><use xlink:href="#a" transform="matrix(1,0,0,1,211,-1140) translate(0 14.4)"/><use xlink:href="#b" transform="matrix(1,0,0,1,211,-1140) translate(45.3 14.4)"/><path d="M220-1074a6 6 0 0 1 6-6h1388a6 6 0 0 1 6 6v648a6 6 0 0 1-6 6H226a6 6 0 0 1-6-6z" stroke="#248814" fill="#fff" fill-opacity="0"/><path d="M220-1080h56v56h-56v-56z" stroke="#fff" stroke-opacity="0" fill="#248814"/><path d="M251.76-1051.7h-1.18v-1.1c-.12-1.73-1.48-3.07-3.2-3.2-1.9-.13-3.54 1.3-3.67 3.2v1.07h-1.17c-.44 0-.8.36-.8.8v6.13c0 .44.36.8.8.8h9.23c.44 0 .8-.36.8-.8v-6.1c0-.43-.36-.8-.8-.8zm-6.4-1.06c.1-1.03 1-1.77 2-1.67.9.08 1.58.77 1.67 1.67v1.06h-3.72zm5.65 7.08h-7.67v-4.42h7.63z" stroke="#fff" stroke-opacity="0" fill="#fff"/><path d="M262.27-1054.26c-.08-2.44-1.58-4.47-3.87-5.3-1.58-.46-3.16-.13-4.4.9-.68-1.44-1.47-2.6-2.6-3.75-3.24-3.36-7.94-4.3-12.18-2.4-4.04 1.9-6.4 5.63-6.54 10.05v.7c-3.4.97-5.66 4.08-5.5 7.65v.63c.38 4.28 3.92 7.52 8.2 7.47h26s7.42-.63 7.42-8.1c.04-3.9-2.66-7.2-6.53-7.86zm-.96 14.4h-25.9c-3.47.05-6.3-2.53-6.6-5.97v-.52c-.15-3.05 1.93-5.7 4.92-6.3.38-.12.63-.48.6-.9-.06-.4-.06-.73 0-1.14.07-3.78 2.1-6.94 5.52-8.6 1.25-.57 2.4-.8 3.83-.84 2.62.08 4.87 1.04 6.7 2.94 1.25 1.3 2.04 2.6 2.62 4.3.03.15.1.28.24.37.37.27.87.2 1.12-.17.83-1.18 2.25-1.67 3.62-1.3 1.8.72 2.87 2.4 2.83 4.32-.07.4.22.83.64.9 3.57.36 6.2 3.55 5.82 7.12-.3 3.13-2.7 5.52-5.82 5.85z" stroke="#fff" stroke-opacity="0" fill="#fff"/><use xlink:href="#c" transform="matrix(1,0,0,1,291,-1060) translate(0 14.4)"/><use xlink:href="#d" transform="matrix(1,0,0,1,291,-1060) translate(55.5 14.4)"/><use xlink:href="#e" transform="matrix(1,0,0,1,291,-1060) translate(116.4 14.4)"/><path d="M1165-860c16.57 0 30 13.43 30 30v220c0 16.57-13.43 30-30 30H915c-16.57 0-30-13.43-30-30v-220c0-16.57 13.43-30 30-30z" stroke="#3a414a" fill-opacity="0"/><use xlink:href="#f" transform="matrix(1,0,0,1,923,-852) translate(55.364197530864196 17.944444444444443)"/><path d="M540-974a6 6 0 0 1 6-6h988a6 6 0 0 1 6 6v448a6 6 0 0 1-6 6H546a6 6 0 0 1-6-6z" fill="#5a6c86" fill-opacity=".13"/><path d="M1170-980c16.57 0 30 13.43 30 30s-13.43 30-30 30H910c-16.57 0-30-13.43-30-30s13.43-30 30-30z" stroke="#3a414a" fill-opacity="0"/><use xlink:href="#g" transform="matrix(1,0,0,1,918,-972) translate(32.29629629629629 25.22222222222222)"/><use xlink:href="#h" transform="matrix(1,0,0,1,918,-972) translate(144.46913580246914 25.22222222222222)"/><path d="M1880-934a6 6 0 0 1 6-6h448a6 6 0 0 1 6 6v348a6 6 0 0 1-6 6h-448a6 6 0 0 1-6-6z" stroke="#232f3e" stroke-width="3" fill="#fff" fill-opacity="0"/><path d="M1880-940h56v56h-56v-56z" stroke="#fff" stroke-opacity="0" fill="#232f3e"/><path d="M1920.88-898.78h-25c-4.13.05-7.57-3.1-7.9-7.2v-.64c-.15-3.4 1.97-6.38 5.25-7.36v-.66c.12-4.22 2.44-7.75 6.24-9.57 4.13-1.86 8.73-.96 11.8 2.3 1.1 1.1 1.85 2.2 2.45 3.6 1.2-1 2.72-1.32 4.24-.9 2.24.8 3.68 2.74 3.76 5.1 3.68.65 6.32 3.8 6.28 7.56 0 7.07-7.04 7.73-7.12 7.76zm-26.7-13.88c-2.83.6-4.75 3.14-4.6 6.04v.53c.3 3.33 3.1 5.84 6.4 5.76h24.98c3.04-.3 5.4-2.64 5.68-5.7.28-3.43-2.24-6.5-5.68-6.78-.44-.05-.72-.44-.64-.87.08-1.83-1-3.44-2.72-4.13-1.32-.37-2.64.13-3.44 1.24-.2.25-.44.38-.76.33-.28-.05-.48-.24-.6-.5-.6-1.6-1.4-2.85-2.6-4.04-2.68-2.8-6.6-3.6-10.13-2-3.24 1.6-5.2 4.63-5.32 8.24-.04.4-.04.74 0 1.14.04.4-.2.76-.6.84z" stroke="#fff" stroke-opacity="0" fill="#fff"/><use xlink:href="#a" transform="matrix(1,0,0,1,1951,-920) translate(0 14.4)"/><use xlink:href="#b" transform="matrix(1,0,0,1,1951,-920) translate(45.3 14.4)"/><path d="M973.55-745.86h-48.27v-48.28h48.27zm-45.76-2.5h43.24v-43.27H927.8z" stroke="#fff" stroke-opacity="0" fill="#d86613"/><path d="M932.18-800h2.5v7.1h-2.5v-7.1zM940-800h2.5v7.1H940v-7.1zM947.86-800h2.5v7.1h-2.5v-7.1zM955.7-800h2.5v7.1h-2.5v-7.1zM963.56-800h2.5v7.1h-2.5v-7.1zM932.18-747.1h2.5v7.1h-2.5v-7.1zM940-747.1h2.5v7.1H940v-7.1zM947.86-747.1h2.5v7.1h-2.5v-7.1zM955.7-747.1h2.5v7.1h-2.5v-7.1zM963.56-747.1h2.5v7.1h-2.5v-7.1zM972.3-786.94h7.1v2.5h-7.1v-2.5zM972.3-779.1h7.1v2.5h-7.1v-2.5zM972.3-771.25h7.1v2.5h-7.1v-2.5zM972.3-763.4h7.1v2.5h-7.1v-2.5zM972.3-755.56h7.1v2.5h-7.1v-2.5zM919.4-786.94h7.13v2.5h-7.12v-2.5zM919.4-779.1h7.13v2.5h-7.12v-2.5zM919.4-771.25h7.13v2.5h-7.12v-2.5zM919.4-763.4h7.13v2.5h-7.12v-2.5zM919.4-755.56h7.13v2.5h-7.12v-2.5zM786.32-663.68H673.68v-112.64h112.64zm-106.78-5.86h100.92v-100.92H679.54z" stroke="#fff" stroke-opacity="0" fill="#d86613"/><path d="M689.78-790h5.83v16.6h-5.82V-790zM708.07-790h5.83v16.6h-5.83V-790zM726.38-790h5.84v16.6h-5.84V-790zM744.7-790h5.83v16.6h-5.83V-790zM763.02-790h5.83v16.6h-5.83V-790zM689.78-666.6h5.83v16.6h-5.82v-16.6zM708.07-666.6h5.83v16.6h-5.83v-16.6zM726.38-666.6h5.84v16.6h-5.84v-16.6zM744.7-666.6h5.83v16.6h-5.83v-16.6zM763.02-666.6h5.83v16.6h-5.83v-16.6zM783.4-759.52H800v5.83h-16.6v-5.82zM783.4-741.23H800v5.83h-16.6v-5.83zM783.4-722.92H800v5.84h-16.6v-5.84zM783.4-704.6H800v5.83h-16.6v-5.83zM783.4-686.3H800v5.82h-16.6v-5.83zM660-759.52h16.6v5.83H660v-5.82zM660-741.23h16.6v5.83H660v-5.83zM660-722.92h16.6v5.84H660v-5.84zM660-704.6h16.6v5.83H660v-5.83zM660-686.3h16.6v5.82H660v-5.83z" stroke="#fff" stroke-opacity="0" fill="#d86613"/><use xlink:href="#i" transform="matrix(1,0,0,1,630,-641) translate(25.583333333333343 16)"/><use xlink:href="#j" transform="matrix(1,0,0,1,630,-641) translate(95.58333333333334 16)"/><path d="M1039.7-720c-1 .1-1.8.3-2.6.7l-34.7 17.1c-1.9.9-3.2 2.5-3.6 4.6l-8.6 38.5c-.4 1.8-.1 3.6.9 5.2.1.2.2.3.4.5l24 30.8c1.3 1.7 3.1 2.6 5.2 2.6h38.6c2.1 0 3.9-.9 5.2-2.6l24-30.8c1.3-1.7 1.8-3.7 1.3-5.8l-8.6-38.4c-.4-2.1-1.7-3.7-3.6-4.6l-34.7-17.1c-1.1-.5-2.1-.8-3.2-.7z" stroke="#fff" stroke-width="0" fill="#326ce5"/><path d="M1040-706.9c-1.17 0-2.05 1.03-2.05 2.36V-703.87c0 .73.14 1.32.22 2 .22 1.46.36 2.72.3 3.9-.16.44-.45.8-.74 1.1v.9c-1.25.14-2.5.3-3.8.58-5.36 1.27-10.05 4.14-13.57 8.06-.22-.15-.66-.45-.74-.6-.36.08-.73.23-1.24-.07-.95-.67-1.76-1.56-2.8-2.66-.5-.52-.8-.97-1.38-1.48-.15-.15-.3-.3-.44-.37-.44-.38-.95-.6-1.46-.6-.66 0-1.25.22-1.7.74-.72.96-.43 2.36.52 3.17l.08.1c.07.06.3.2.36.28.66.44 1.18.74 1.76 1.03 1.25.82 2.27 1.5 3.08 2.3.37.37.37.96.44 1.26l.66.6c-3.6 5.52-5.2 12.4-4.25 19.32l-.88.3c-.22.3-.5.74-.88.88-1.1.37-2.28.52-3.75.67-.66.07-1.24 0-1.98.15-.14 0-.36.07-.58.14-1.26.3-2.07 1.48-1.77 2.6.22 1.17 1.4 1.83 2.64 1.6 0 0 .07 0 .07-.06.22 0 .44-.08.6-.08.65-.22 1.16-.5 1.82-.73 1.4-.52 2.5-.96 3.66-1.1.44-.08.96.28 1.18.43l.88-.22c2.12 6.72 6.45 12.1 12.02 15.5l-.37.88c.14.37.3.9.14 1.26-.36 1.03-1.1 2.2-1.83 3.47-.44.6-.8 1.03-1.17 1.7-.07.14-.15.44-.22.6-.6 1.17-.15 2.5.88 3 1.03.53 2.27 0 2.86-1.17.06-.14.2-.37.28-.6.3-.65.37-1.24.6-1.9.5-1.4.8-2.96 1.6-3.85.22-.3.5-.36.88-.44l.44-.87c4.84 1.9 10.26 2.36 15.68 1.1 1.18-.3 2.42-.66 3.52-1.1.15.3.44.73.44.8.37.16.8.23 1.1.67.6 1.04.95 2.22 1.4 3.62.2.66.36 1.33.65 2 .07.14.14.36.2.5.6 1.2 1.84 1.78 2.87 1.26 1.03-.5 1.47-1.84.88-3.02-.07-.22-.15-.45-.22-.6-.37-.66-.73-1.1-1.1-1.7-.8-1.32-1.46-2.35-1.9-3.46-.15-.52.07-.9.2-1.25-.13-.08-.28-.6-.35-.82 5.7-3.54 9.97-9.15 11.94-15.57.3 0 .74.15.96.15.3-.2.58-.5 1.1-.43 1.17.14 2.27.58 3.66 1.1.66.22 1.17.52 1.83.74.15.08.37.08.6.16h.06c1.25.3 2.42-.45 2.64-1.55.3-1.17-.5-2.35-1.76-2.65-.13 0-.43-.07-.57-.15-.74-.14-1.32-.07-1.98-.14-1.47-.15-2.64-.3-3.74-.67-.43-.16-.72-.67-.87-.9l-.88-.3c.44-3.24.37-6.56-.44-9.95-.72-3.4-2.04-6.57-3.87-9.3.22-.23.66-.6.73-.67.07-.44 0-.8.44-1.25.8-.74 1.83-1.4 3.08-2.22.58-.36 1.1-.58 1.68-1.02.15-.15.37-.3.52-.37.95-.8 1.17-2.28.5-3.16-.72-.96-2.12-1.04-3.14-.22-.15.14-.3.3-.44.37-.6.5-.88 1.02-1.4 1.54-1.02 1.03-1.83 1.9-2.78 2.58-.44.22-1.02.15-1.24.15l-.8.6c-4.55-4.88-10.64-8-17.3-8.65v-.96c-.3-.22-.67-.44-.74-1.03-.07-1.18.07-2.44.3-3.9.07-.68.2-1.27.2-2v-.67c0-1.33-.87-2.36-2.04-2.36zm-2.64 16.6l-.58 11.3h-.08c0 1.03-.8 1.84-1.83 1.84-.37 0-.73-.15-1.03-.37h-.07l-8.94-6.57c2.78-2.8 6.3-4.8 10.33-5.75.74-.23 1.47-.3 2.2-.45zm5.28 0c4.7.6 9.1 2.8 12.46 6.2l-8.94 6.5c-.8.6-1.9.44-2.5-.37-.3-.3-.44-.66-.44-1.03zm-21.04 10.4l8.2 7.54-.06.07c.73.68.88 1.78.3 2.6-.3.37-.6.5-.96.66h-.07l-10.4 3.17c-.6-5 .6-9.96 3-14.02zm36.72 0c1.25 2.08 2.13 4.3 2.7 6.8.53 2.44.67 4.8.45 7.16l-10.55-3.1v-.07c-.95-.24-1.54-1.27-1.32-2.23.15-.44.3-.74.6-1.03l8.12-7.53zm-20 8.13h3.37l2.04 2.66-.73 3.38-3 1.48-3-1.48-.74-3.4zm10.77 9.15c.06 0 .2 0 .36.08h.07l10.77 1.84c-1.54 4.58-4.62 8.56-8.65 11.22l-4.17-10.48c-.37-.9 0-2 .88-2.44.22-.14.44-.14.73-.22zm-18.26.08c.88 0 1.6.6 1.76 1.47.14.37.07.8-.07 1.18l-4.1 10.42c-3.97-2.58-7.05-6.42-8.66-11.15l10.7-1.9h.37zm9.1 4.57c.28-.07.57 0 .87.15.37.22.67.44.8.8h.1l5.26 9.9c-.73.22-1.4.44-2.12.6-4.03.95-8.06.66-11.73-.67l5.3-9.8c.28-.6.87-.97 1.53-.97z" stroke="#fff" stroke-width=".05" fill="#fff"/><use xlink:href="#k" transform="matrix(1,0,0,1,960,-611) translate(22.099999999999994 14.4)"/><use xlink:href="#l" transform="matrix(1,0,0,1,960,-611) translate(72 14.4)"/><path d="M1064.14-745.86h-48.28v-48.28h48.28zm-45.77-2.5h43.26v-43.27h-43.26z" stroke="#fff" stroke-opacity="0" fill="#d86613"/><path d="M1022.76-800h2.5v7.1h-2.5v-7.1zM1030.6-800h2.5v7.1h-2.5v-7.1zM1038.45-800h2.5v7.1h-2.5v-7.1zM1046.3-800h2.5v7.1h-2.5v-7.1zM1054.15-800h2.5v7.1h-2.5v-7.1zM1022.76-747.1h2.5v7.1h-2.5v-7.1zM1030.6-747.1h2.5v7.1h-2.5v-7.1zM1038.45-747.1h2.5v7.1h-2.5v-7.1zM1046.3-747.1h2.5v7.1h-2.5v-7.1zM1054.15-747.1h2.5v7.1h-2.5v-7.1zM1062.9-786.94h7.1v2.5h-7.1v-2.5zM1062.9-779.1h7.1v2.5h-7.1v-2.5zM1062.9-771.25h7.1v2.5h-7.1v-2.5zM1062.9-763.4h7.1v2.5h-7.1v-2.5zM1062.9-755.56h7.1v2.5h-7.1v-2.5zM1010-786.94h7.1v2.5h-7.1v-2.5zM1010-779.1h7.1v2.5h-7.1v-2.5zM1010-771.25h7.1v2.5h-7.1v-2.5zM1010-763.4h7.1v2.5h-7.1v-2.5zM1010-755.56h7.1v2.5h-7.1v-2.5zM1154.72-745.86h-48.27v-48.28h48.27zm-45.76-2.5h43.25v-43.27h-43.24z" stroke="#fff" stroke-opacity="0" fill="#d86613"/><path d="M1113.35-800h2.5v7.1h-2.5v-7.1zM1121.2-800h2.5v7.1h-2.5v-7.1zM1129.04-800h2.5v7.1h-2.5v-7.1zM1136.9-800h2.5v7.1h-2.5v-7.1zM1144.74-800h2.5v7.1h-2.5v-7.1zM1113.35-747.1h2.5v7.1h-2.5v-7.1zM1121.2-747.1h2.5v7.1h-2.5v-7.1zM1129.04-747.1h2.5v7.1h-2.5v-7.1zM1136.9-747.1h2.5v7.1h-2.5v-7.1zM1144.74-747.1h2.5v7.1h-2.5v-7.1zM1153.47-786.94h7.12v2.5h-7.13v-2.5zM1153.47-779.1h7.12v2.5h-7.13v-2.5zM1153.47-771.25h7.12v2.5h-7.13v-2.5zM1153.47-763.4h7.12v2.5h-7.13v-2.5zM1153.47-755.56h7.12v2.5h-7.13v-2.5zM1100.6-786.94h7.1v2.5h-7.1v-2.5zM1100.6-779.1h7.1v2.5h-7.1v-2.5zM1100.6-771.25h7.1v2.5h-7.1v-2.5zM1100.6-763.4h7.1v2.5h-7.1v-2.5zM1100.6-755.56h7.1v2.5h-7.1v-2.5zM1426.32-663.68h-112.64v-112.64h112.64zm-106.78-5.86h100.92v-100.92h-100.92z" stroke="#fff" stroke-opacity="0" fill="#d86613"/><path d="M1329.78-790h5.83v16.6h-5.82V-790zM1348.07-790h5.83v16.6h-5.83V-790zM1366.38-790h5.84v16.6h-5.84V-790zM1384.7-790h5.83v16.6h-5.83V-790zM1403.02-790h5.83v16.6h-5.83V-790zM1329.78-666.6h5.83v16.6h-5.82v-16.6zM1348.07-666.6h5.83v16.6h-5.83v-16.6zM1366.38-666.6h5.84v16.6h-5.84v-16.6zM1384.7-666.6h5.83v16.6h-5.83v-16.6zM1403.02-666.6h5.83v16.6h-5.83v-16.6zM1423.4-759.52h16.6v5.83h-16.6v-5.82zM1423.4-741.23h16.6v5.83h-16.6v-5.83zM1423.4-722.92h16.6v5.84h-16.6v-5.84zM1423.4-704.6h16.6v5.83h-16.6v-5.83zM1423.4-686.3h16.6v5.82h-16.6v-5.83zM1300-759.52h16.6v5.83H1300v-5.82zM1300-741.23h16.6v5.83H1300v-5.83zM1300-722.92h16.6v5.84H1300v-5.84zM1300-704.6h16.6v5.83H1300v-5.83zM1300-686.3h16.6v5.82H1300v-5.83z" stroke="#fff" stroke-opacity="0" fill="#d86613"/><use xlink:href="#m" transform="matrix(1,0,0,1,1270,-641) translate(12.305555555555543 16)"/><use xlink:href="#j" transform="matrix(1,0,0,1,1270,-641) translate(108.86111111111111 16)"/><path d="M1949.2-785.42a6 6 0 0 1 6-6H2274a6 6 0 0 1 6 6v138.44a6 6 0 0 1-6 6h-318.8a6 6 0 0 1-6-6z" stroke="#5e5e5e" stroke-width="3" fill="#ffeca9"/><use xlink:href="#n" transform="matrix(1,0,0,1,1954.1891891891898,-786.416003166738) translate(103.80246913580248 75.05902777777777)"/><use xlink:href="#o" transform="matrix(1,0,0,1,1954.1891891891898,-786.416003166738) translate(169.11111111111111 75.05902777777777)"/><path d="M1440.5-720h490.81" stroke="#3a414a" fill="none"/><path d="M1440.5-719.5h-.5v-1h.5z" stroke="#3a414a" stroke-width=".05" fill="#3a414a"/><path d="M1946.07-720l-14.26 4.63v-9.27z" stroke="#3a414a" fill="#3a414a"/><use xlink:href="#p" transform="matrix(1,0,0,1,1759.4013763980079,-745.334123408994) translate(0 14.222222222222223)"/><path d="M860.2-725.98l-.07 1-.24 1-.4.93-.53.87-.67.78-.77.66-.87.53-.94.38-1 .24-1 .08H800.5v-1h53.2l.87-.07.84-.2.8-.33.74-.45.65-.56.55-.67.46-.73.34-.8.2-.84.07-.88v-8.3h1zm42.83-43.52h-37.3l-.88.07-.84.2-.8.33-.73.45-.65.56-.56.67-.45.73-.32.8-.2.84-.07.88v8.3h-1V-764l.08-1 .24-1 .4-.93.53-.87.66-.78.78-.66.88-.53.94-.38 1-.24 1-.08h37.33z" stroke="#3a414a" stroke-width=".05" fill="#3a414a"/><path d="M800.5-719.5h-.5v-1h.5z" fill="#3a414a"/><path d="M800.54-719.48h-.56v-1.04h.56zm-.5-1v.96h.45v-.96z" stroke="#3a414a" stroke-width=".05" fill="#3a414a"/><path d="M917.8-770l-14.27 4.63v-9.26z" fill="#3a414a"/><path d="M919.4-770l-16.37 5.32v-10.64zm-15.37 3.95l12.15-3.95-12.15-3.95z" stroke="#3a414a" stroke-width=".05" fill="#3a414a"/><use xlink:href="#q" transform="matrix(1,0,0,1,835.5835334853125,-755.6666666666666) translate(0 14.222222222222223)"/><path d="M1230.8-726.02l.06.88.2.84.33.8.44.73.57.66.66.55.74.45.8.33.83.2.88.07h47.32v1h-47.35l-1-.08-1-.24-.93-.4-.87-.52-.77-.66-.67-.78-.53-.87-.4-.94-.23-.98-.08-1v-8.35h1zm-5.5-44.4l1 .24.94.4.88.52.77.66.65.78.54.87.38.94.23.98.1 1v8.35h-1v-8.3l-.08-.9-.2-.83-.33-.8-.46-.73-.56-.66-.65-.55-.74-.45-.8-.33-.85-.2-.88-.07h-63.18v-1h63.2z" stroke="#3a414a" stroke-width=".05" fill="#3a414a"/><path d="M1161.1-769.5h-.5v-1h.5z" fill="#3a414a"/><path d="M1161.12-769.48h-.56v-1.04h.56zm-.5-1v.96h.45v-.96z" stroke="#3a414a" stroke-width=".05" fill="#3a414a"/><path d="M1298.38-720l-14.26 4.63v-9.26z" fill="#3a414a"/><path d="M1300-720l-16.38 5.32v-10.64zm-15.38 3.95l12.14-3.95-12.14-3.95z" stroke="#3a414a" stroke-width=".05" fill="#3a414a"/><use xlink:href="#q" transform="matrix(1,0,0,1,1206.1695529344404,-755.6666666666665) translate(0 14.222222222222223)"/><path d="M389.2-687.05c1.85-1.53 3.6-3.06 5.45-4.6.56-.54 1.28-1.1 1.84-1.63-.5-.6-1.3-1.06-2-1.3-1.37-.53-2.73-.37-4 .37-1.7.96-2.4 2.5-2.4 4.4.07.75.23 1.47.63 2.1.16.24.32.44.48.65m2.1 1.45c.87.3 1.9.27 2.8.1.47-.2 1.67-.7 2.07-.62h.08l.08.03c.24.15.48.32.64.6.32.62.16 1.25-.48 1.6l-.17.14c-2.32 1.32-4.8 1.13-7.04-.1-1.13-.58-1.93-1.47-2.56-2.53l-.16-.23c-1.44-2.55-1.28-5.22.4-7.63.56-.84 1.27-1.5 2.15-2l.4-.18c2.16-1.24 4.48-1.17 6.72-.07 1.12.57 2.16 1.44 2.8 2.6l.08.2c.56.83-.08 1.57-.72 2.06-.8.6-1.5 1.28-2.23 1.9-1.68 1.37-3.28 2.77-4.88 4.14zm17.26-11.55h.24c.72 0 1.2.5 1.2 1.2 0 1-.96 1.25-1.76 1.25-1.12 0-2.16.66-2.88 1.4-.96.9-1.36 2.08-1.36 3.38v5.82c0 .68-.4 1.2-1.12 1.2h-.24c-.63 0-1.1-.52-1.1-1.2v-6.16c0-2.36 1.2-4.3 3.1-5.65 1.2-.82 2.48-1.25 3.92-1.25zm-30.22 4.13c.96-.92 1.84-1.87 2.8-2.8.32-.24 1.28-1.33 1.68-1.33h.48c.56.13.96.47.96 1.05v.25c0 .4-.4.87-.72 1.15-.56.6-1.12 1.15-1.68 1.72l-2.96 2.95c1.28 1.26 2.56 2.5 3.76 3.77.4.36.72.72 1.04 1.06.16.13.32.3.4.47.16.15.16.34.16.53v.32c-.08.55-.48 1-1.04 1h-.24c-.4 0-.88-.47-1.12-.7l-1.68-1.66-1.84-1.8v2.9c0 .66-.4 1.2-1.12 1.2h-.16c-.72 0-1.12-.54-1.12-1.2v-16.36c0-.66.4-1.2 1.12-1.2h.16c.72 0 1.12.54 1.12 1.2v7.48zm-7.9-1.62c-.33-.17-1.05-.23-1.45-.25-2-.06-3.45 1.07-4.33 2.85-.32.6-.4 1.26-.4 1.94 0 2.05 1.04 3.5 2.88 4.37.72.32 1.6.38 2.32.38.64 0 1.6-.4 2.16-.66l.08-.07h.5v.02c.55.12 1.03.45 1.03 1.04v.24c0 1.47-2.72 1.8-3.76 1.87-3.68.25-6.4-1.73-7.44-5.17-.16-.58-.24-1.2-.24-1.8v-.5c0-2.6 1.35-4.67 3.6-6 1.03-.62 2.15-.94 3.43-.94h.48c1.3 0 2.5.37 3.52 1.1l.08.05.1.1c.06.18.23.4.23.63v.23c0 .63-.5.95-1.04 1.07l-.1.02h-.15c-.32-.03-1.12-.4-1.52-.54zm-22.08 4.57c0 1.83.88 3.17 2.48 4.14.72.43 1.52.64 2.4.64 1.76 0 3.12-.92 4.08-2.45.48-.72.63-1.53.63-2.36 0-1.73-.8-3-2.23-3.96-.8-.53-1.6-.77-2.56-.77-2 0-3.52 1.02-4.4 2.8-.24.64-.4 1.28-.4 1.96zm4.56-7.18h.32c2.8 0 4.95 1.36 6.3 3.8.57.96.8 2.02.8 3.13v.5c0 2.6-1.26 4.68-3.5 6-1.04.6-2.24.93-3.44.93h-.48c-2.64 0-4.72-1.28-6.08-3.53-.56-1.04-.88-2.2-.88-3.4v-.5c0-2.6 1.28-4.65 3.52-6 1.04-.62 2.24-.92 3.44-.92zm-20.47 7.18c0 1.9.96 3.3 2.64 4.2.63.37 1.35.58 2.15.58 1.84 0 3.2-.86 4.16-2.43.5-.74.65-1.53.65-2.38 0-1.65-.72-2.92-2.08-3.88-.8-.57-1.68-.85-2.72-.85-2 0-3.44 1.02-4.32 2.8-.32.64-.48 1.28-.48 1.96zm9.6-5.38v-5.1c0-.67.48-1.2 1.12-1.2h.23c.73 0 1.13.53 1.13 1.2v10.72c0 2.6-1.28 4.7-3.6 6-1.04.62-2.16.94-3.44.94h-.5c-2.63 0-4.7-1.28-6-3.53-.63-1.04-.95-2.2-.95-3.4v-.5c0-2.6 1.28-4.67 3.6-6 1.04-.62 2.16-.92 3.36-.92h.5c1.83 0 3.35.68 4.55 1.8zM376.12-735.3h7.2v7.24h3.6c1.67 0 3.42-.27 4.96-.8.77-.28 1.68-.64 2.45-1.1-1.05-1.3-1.54-2.96-1.68-4.6-.2-2.24.2-5.12 1.75-6.83l.77-.84.84.67c2.32 1.8 4.2 4.32 4.5 7.2 2.72-.8 5.94-.58 8.32.77l1 .6-.5.98c-2.04 3.9-6.3 5.13-10.44 4.9-6.16 15.36-19.68 22.6-36 22.6-8.46 0-16.24-3.15-20.65-10.58l-.07-.13-.63-1.3c-1.47-3.3-1.96-6.85-1.68-10.45l.14-1.08h6.08v-7.25h7.14v-7.12h14.36v-7.12h8.54v14.23z" stroke="#000" stroke-opacity="0" fill="#394d54"/><path d="M399.35-732.63c.47-3.7-2.36-6.6-4.04-8-2 2.3-2.34 8.28.82 10.83-1.75 1.54-5.45 2.93-9.2 2.93h-45.88c-.34 3.9.33 7.5 1.95 10.6l.46.93c.34.56.74 1.08 1.14 1.6 1.9.14 3.57.18 5.18.14 3.16-.06 5.65-.45 7.6-1.1.27-.08.6.06.74.34.07.28-.07.6-.33.7-.28.1-.55.17-.82.24-1.55.42-3.16.73-5.3.87h-.15c-.07 0-.13 0-.2.04-.8.02-1.75.02-2.63.02-1 0-2 0-3.1-.07l-.06.04c3.84 4.25 9.82 6.8 17.3 6.8 15.86 0 29.3-7 35.23-22.63 4.24.42 8.34-.67 10.16-4.23-2.96-1.7-6.73-1.15-8.88-.07z" stroke="#000" stroke-opacity="0" fill="#00aada"/><path d="M399.33-732.64c.45-3.7-2.34-6.6-4.02-8-2 2.3-2.33 8.3.8 10.82-1.74 1.57-5.42 2.95-9.16 2.95h-43.17c-.17 5.97 2.07 10.54 6.03 13.27 3.13-.06 5.64-.45 7.6-1.1.28-.1.6.05.67.35.1.27 0 .57-.34.7-.22.08-.5.14-.78.23-1.5.42-3.3.75-5.42.9l-.05-.06c5.4 2.76 13.23 2.74 22.22-.7 10.06-3.8 19.38-11.13 25.9-19.48-.1.03-.15.1-.27.12z" stroke="#000" stroke-opacity="0" fill="#24b8eb"/><path d="M341.15-722.13c.27 2.1.92 4.06 1.84 5.85l.47.94c.33.56.7 1.1 1.08 1.6 1.9.14 3.67.17 5.23.14 3.13-.07 5.66-.43 7.6-1.1.27-.1.6.05.7.34.1.28-.05.6-.32.7-.27.1-.54.17-.8.24-1.52.44-3.3.74-5.4.87h-.27c-.82.06-1.73.08-2.65.08-.97 0-2-.02-3.13-.07 3.83 4.27 9.87 6.83 17.37 6.83 13.52 0 25.33-5.13 32.18-16.43h-53.93z" stroke="#000" stroke-opacity="0" fill="#008bb8"/><path d="M344.2-722.12c.8 3.67 2.77 6.55 5.6 8.5 3.1-.04 5.64-.4 7.57-1.08.3-.1.63.06.7.33.1.3-.03.6-.3.7-.27.1-.54.18-.8.25-1.53.44-3.37.75-5.47.88 5.42 2.74 13.22 2.7 22.18-.72 5.42-2.07 10.62-5.15 15.32-8.86h-44.8z" stroke="#000" stroke-opacity="0" fill="#039bc6"/><path d="M352.5-733.63h.48v5.14h-.5v-5.13zm-.96 0h.5v5.14h-.5v-5.13zm-.93 0h.52v5.14h-.5v-5.13zm-.93 0h.5v5.14h-.5v-5.13zm-.95 0h.52v5.14h-.52v-5.13zm-.9 0h.48v5.14h-.5v-5.13zm-.53-.5h6.2v6.15h-6.2v-6.16zM359.64-740.73h.5v5.13h-.5v-5.13zm-.94 0h.5v5.13h-.5v-5.13zm-.94 0h.5v5.13h-.5v-5.13zm-.94 0h.5v5.13h-.5v-5.13zm-.94 0h.5v5.13h-.5v-5.13zm-.92 0h.5v5.13h-.5v-5.13zm-.5-.52h6.2v6.16h-6.22v-6.15z" stroke="#000" stroke-opacity="0" fill="#00acd3"/><path d="M359.64-733.63h.5v5.14h-.5v-5.13zm-.94 0h.5v5.14h-.5v-5.13zm-.94 0h.5v5.14h-.5v-5.13zm-.94 0h.5v5.14h-.5v-5.13zm-.94 0h.5v5.14h-.5v-5.13zm-.92 0h.5v5.14h-.5v-5.13zm-.5-.5h6.2v6.15h-6.22v-6.16z" stroke="#000" stroke-opacity="0" fill="#20c2ef"/><path d="M366.8-733.63h.5v5.14h-.5v-5.13zm-.95 0h.5v5.14h-.5v-5.13zm-.93 0h.5v5.14h-.5v-5.13zm-.94 0h.5v5.14h-.5v-5.13zm-.94 0h.5v5.14h-.5v-5.13zm-.93 0h.5v5.14h-.5v-5.13zm-.5-.5h6.2v6.15h-6.2v-6.16z" stroke="#000" stroke-opacity="0" fill="#00acd3"/><path d="M366.8-740.73h.5v5.13h-.5v-5.13zm-.95 0h.5v5.13h-.5v-5.13zm-.93 0h.5v5.13h-.5v-5.13zm-.94 0h.5v5.13h-.5v-5.13zm-.94 0h.5v5.13h-.5v-5.13zm-.93 0h.5v5.13h-.5v-5.13zm-.5-.52h6.2v6.16h-6.2v-6.15zM373.95-733.63h.5v5.14h-.5v-5.13zm-.94 0h.52v5.14h-.5v-5.13zm-.93 0h.5v5.14h-.5v-5.13zm-.94 0h.5v5.14h-.5v-5.13zm-.94 0h.5v5.14h-.5v-5.13zm-.93 0h.5v5.14h-.5v-5.13zm-.52-.5h6.2v6.15h-6.2v-6.16z" stroke="#000" stroke-opacity="0" fill="#20c2ef"/><path d="M373.95-740.73h.5v5.13h-.5v-5.13zm-.94 0h.52v5.13h-.5v-5.13zm-.93 0h.5v5.13h-.5v-5.13zm-.94 0h.5v5.13h-.5v-5.13zm-.94 0h.5v5.13h-.5v-5.13zm-.93 0h.5v5.13h-.5v-5.13zm-.52-.52h6.2v6.16h-6.2v-6.15z" stroke="#000" stroke-opacity="0" fill="#00acd3"/><path d="M373.95-747.84h.5v5.14h-.5v-5.14zm-.94 0h.52v5.14h-.5v-5.14zm-.93 0h.5v5.14h-.5v-5.14zm-.94 0h.5v5.14h-.5v-5.14zm-.94 0h.5v5.14h-.5v-5.14zm-.93 0h.5v5.14h-.5v-5.14zm-.52-.5h6.2v6.15h-6.2v-6.15z" stroke="#000" stroke-opacity="0" fill="#20c2ef"/><path d="M381.1-733.63h.5v5.14h-.5v-5.13zm-.94 0h.5v5.14h-.5v-5.13zm-.93 0h.5v5.14h-.5v-5.13zm-.95 0h.5v5.14h-.5v-5.13zm-.93 0h.5v5.14h-.5v-5.13zm-.93 0h.5v5.14h-.5v-5.13zm-.5-.5h6.2v6.15h-6.2v-6.16z" stroke="#000" stroke-opacity="0" fill="#00acd3"/><path d="M360.26-718c.94 0 1.7.77 1.7 1.7 0 .95-.76 1.7-1.7 1.7-.95 0-1.7-.75-1.7-1.7 0-.93.75-1.7 1.7-1.7" stroke="#000" stroke-opacity="0" fill="#d4edf1"/><path d="M360.26-717.5c.15 0 .3.02.44.08-.15.08-.25.24-.25.43 0 .28.22.5.5.5.2 0 .36-.1.44-.26.05.15.08.3.08.47 0 .68-.55 1.23-1.22 1.23-.68 0-1.23-.55-1.23-1.22 0-.66.55-1.2 1.23-1.2M330-721.5H409.58c-1.75-.45-5.5-1.04-4.86-3.3-3.18 3.63-10.74 2.55-12.65.76-2.15 3.08-14.56 1.9-15.44-.5-2.7 3.13-10.98 3.13-13.7 0-.86 2.4-13.27 3.58-15.42.5-1.9 1.8-9.46 2.87-12.65-.75.64 2.26-3.1 2.85-4.85 3.3" stroke="#000" stroke-opacity="0" fill="#394d54"/><path d="M364.8-705.74c-4.24-2-6.55-4.72-7.86-7.68-1.57.45-3.46.74-5.66.86-.82.04-1.7.07-2.6.07-1.06 0-2.17-.02-3.34-.1 3.9 3.87 8.66 6.84 17.52 6.9.64 0 1.3 0 1.94-.04z" stroke="#000" stroke-opacity="0" fill="#bfdbe0"/><path d="M358.52-710.68c-.58-.8-1.15-1.8-1.57-2.74-1.57.45-3.46.73-5.66.86 1.5.8 3.65 1.57 7.22 1.88z" stroke="#000" stroke-opacity="0" fill="#d4edf1"/><path d="M426.32-659.88H313.68v-112.64h112.64zm-106.78-5.85h100.92v-100.93H319.54z" stroke="#fff" stroke-opacity="0" fill="#d86613"/><path d="M329.78-786.2h5.83v16.6h-5.82v-16.6zM348.07-786.2h5.83v16.6h-5.83v-16.6zM366.38-786.2h5.84v16.6h-5.84v-16.6zM384.7-786.2h5.83v16.6h-5.83v-16.6zM403.02-786.2h5.83v16.6h-5.83v-16.6zM329.78-662.8h5.83v16.6h-5.82v-16.6zM348.07-662.8h5.83v16.6h-5.83v-16.6zM366.38-662.8h5.84v16.6h-5.84v-16.6zM384.7-662.8h5.83v16.6h-5.83v-16.6zM403.02-662.8h5.83v16.6h-5.83v-16.6zM423.4-755.72H440v5.84h-16.6v-5.84zM423.4-737.43H440v5.83h-16.6v-5.83zM423.4-719.1H440v5.82h-16.6v-5.83zM423.4-700.8H440v5.84h-16.6v-5.84zM423.4-682.5H440v5.82h-16.6v-5.83zM300-755.72h16.6v5.84H300v-5.84zM300-737.43h16.6v5.83H300v-5.83zM300-719.1h16.6v5.82H300v-5.83zM300-700.8h16.6v5.84H300v-5.84zM300-682.5h16.6v5.82H300v-5.83z" stroke="#fff" stroke-opacity="0" fill="#d86613"/><use xlink:href="#r" transform="matrix(1,0,0,1,270,-637.1964901548678) translate(14.861111111111114 16)"/><use xlink:href="#s" transform="matrix(1,0,0,1,270,-637.1964901548678) translate(89.13888888888889 16)"/><use xlink:href="#t" transform="matrix(1,0,0,1,270,-637.1964901548678) translate(157.41666666666666 16)"/><use xlink:href="#u" transform="matrix(1,0,0,1,270,-637.1964901548678) translate(57.833333333333336 40)"/><use xlink:href="#v" transform="matrix(1,0,0,1,270,-637.1964901548678) translate(96.72222222222223 40)"/><path d="M1389.2-687.05c1.85-1.53 3.6-3.06 5.45-4.6.56-.54 1.28-1.1 1.84-1.63-.5-.6-1.3-1.06-2-1.3-1.37-.53-2.73-.37-4 .37-1.7.96-2.4 2.5-2.4 4.4.08.75.24 1.47.63 2.1.16.24.32.44.48.65m2.1 1.45c.87.3 1.9.27 2.8.1.47-.2 1.67-.7 2.07-.62h.08l.08.03c.24.15.48.32.64.6.32.62.16 1.25-.48 1.6l-.17.14c-2.32 1.32-4.8 1.13-7.04-.1-1.13-.58-1.92-1.47-2.56-2.53l-.16-.23c-1.44-2.55-1.28-5.22.4-7.63.56-.84 1.28-1.5 2.15-2l.4-.18c2.16-1.24 4.48-1.17 6.72-.07 1.12.57 2.16 1.44 2.8 2.6l.08.2c.56.83-.08 1.57-.72 2.06-.8.6-1.5 1.28-2.23 1.9-1.68 1.37-3.28 2.77-4.88 4.14zm17.26-11.55h.24c.72 0 1.2.5 1.2 1.2 0 1-.96 1.25-1.76 1.25-1.12 0-2.16.66-2.88 1.4-.96.9-1.36 2.08-1.36 3.38v5.82c0 .68-.4 1.2-1.12 1.2h-.24c-.63 0-1.1-.52-1.1-1.2v-6.16c0-2.36 1.18-4.3 3.1-5.65 1.2-.82 2.48-1.25 3.92-1.25zm-30.22 4.13c.96-.92 1.84-1.87 2.8-2.8.32-.24 1.28-1.33 1.68-1.33h.48c.56.13.96.47.96 1.05v.25c0 .4-.4.87-.72 1.15-.56.6-1.12 1.15-1.68 1.72l-2.96 2.95c1.28 1.26 2.56 2.5 3.76 3.77.4.36.72.72 1.04 1.06.16.13.32.3.4.47.16.15.16.34.16.53v.32c-.08.55-.48 1-1.04 1h-.24c-.4 0-.88-.47-1.12-.7l-1.68-1.66-1.84-1.8v2.9c0 .66-.4 1.2-1.12 1.2h-.16c-.72 0-1.12-.54-1.12-1.2v-16.36c0-.66.4-1.2 1.12-1.2h.16c.72 0 1.12.54 1.12 1.2v7.48zm-7.9-1.62c-.33-.17-1.05-.23-1.45-.25-2-.06-3.45 1.07-4.33 2.85-.32.6-.4 1.26-.4 1.94 0 2.05 1.04 3.5 2.88 4.37.72.32 1.6.38 2.32.38.64 0 1.6-.4 2.16-.66l.08-.07h.5v.02c.54.12 1.02.45 1.02 1.04v.24c0 1.47-2.7 1.8-3.75 1.87-3.68.25-6.4-1.73-7.44-5.17-.16-.58-.24-1.2-.24-1.8v-.5c0-2.6 1.35-4.67 3.6-6 1.03-.62 2.15-.94 3.43-.94h.48c1.3 0 2.5.37 3.53 1.1l.08.05.08.1c.1.18.24.4.24.63v.23c0 .63-.48.95-1.03 1.07l-.1.02h-.15c-.32-.03-1.12-.4-1.52-.54zm-22.08 4.57c0 1.83.88 3.17 2.48 4.14.72.43 1.52.64 2.4.64 1.76 0 3.12-.92 4.08-2.45.48-.72.63-1.53.63-2.36 0-1.73-.8-3-2.23-3.96-.8-.53-1.6-.77-2.56-.77-2 0-3.52 1.02-4.4 2.8-.24.64-.4 1.28-.4 1.96zm4.56-7.18h.32c2.8 0 4.95 1.36 6.3 3.8.57.96.8 2.02.8 3.13v.5c0 2.6-1.26 4.68-3.5 6-1.04.6-2.24.93-3.44.93h-.48c-2.64 0-4.72-1.28-6.08-3.53-.56-1.04-.88-2.2-.88-3.4v-.5c0-2.6 1.28-4.65 3.52-6 1.04-.62 2.24-.92 3.44-.92zm-20.47 7.18c0 1.9.96 3.3 2.64 4.2.63.37 1.35.58 2.15.58 1.84 0 3.2-.86 4.16-2.43.5-.74.65-1.53.65-2.38 0-1.65-.72-2.92-2.08-3.88-.8-.57-1.68-.85-2.72-.85-2 0-3.44 1.02-4.32 2.8-.32.64-.48 1.28-.48 1.96zm9.6-5.38v-5.1c0-.67.48-1.2 1.12-1.2h.23c.72 0 1.13.53 1.13 1.2v10.72c0 2.6-1.3 4.7-3.6 6-1.04.62-2.16.94-3.44.94h-.5c-2.63 0-4.7-1.28-6-3.53-.63-1.04-.95-2.2-.95-3.4v-.5c0-2.6 1.28-4.67 3.6-6 1.04-.62 2.16-.92 3.36-.92h.5c1.83 0 3.35.68 4.55 1.8zM1376.12-735.3h7.22v7.24h3.57c1.7 0 3.44-.27 4.98-.8.77-.28 1.68-.64 2.45-1.1-1.05-1.3-1.54-2.96-1.68-4.6-.2-2.24.2-5.12 1.75-6.83l.77-.84.84.67c2.32 1.8 4.2 4.32 4.5 7.2 2.72-.8 5.94-.58 8.32.77l1 .6-.5.98c-2.04 3.9-6.3 5.13-10.44 4.9-6.16 15.36-19.68 22.6-36 22.6-8.47 0-16.24-3.15-20.65-10.58l-.07-.13-.63-1.3c-1.47-3.3-1.96-6.85-1.68-10.45l.14-1.08h6.08v-7.25h7.14v-7.12h14.36v-7.12h8.54v14.23z" stroke="#000" stroke-opacity="0" fill="#394d54"/><path d="M1399.35-732.63c.47-3.7-2.36-6.6-4.04-8-2 2.3-2.34 8.28.82 10.83-1.75 1.54-5.45 2.93-9.2 2.93h-45.88c-.34 3.9.34 7.5 1.95 10.6l.46.93c.34.56.74 1.08 1.14 1.6 1.9.14 3.57.18 5.18.14 3.16-.06 5.65-.45 7.6-1.1.27-.08.6.06.74.34.07.28-.07.6-.33.7-.28.1-.55.17-.82.24-1.55.42-3.16.73-5.32.87h-.13c-.07 0-.13 0-.2.04-.8.02-1.75.02-2.63.02-1 0-2 0-3.1-.07l-.06.04c3.84 4.25 9.82 6.8 17.3 6.8 15.86 0 29.3-7 35.23-22.63 4.24.42 8.34-.67 10.16-4.23-2.96-1.7-6.73-1.15-8.88-.07z" stroke="#000" stroke-opacity="0" fill="#00aada"/><path d="M1399.34-732.64c.44-3.7-2.35-6.6-4.03-8-2 2.3-2.33 8.3.8 10.82-1.73 1.57-5.42 2.95-9.16 2.95h-43.17c-.17 5.97 2.07 10.54 6.03 13.27 3.13-.06 5.64-.45 7.6-1.1.28-.1.6.05.67.35.1.27 0 .57-.34.7-.22.08-.5.14-.78.23-1.5.42-3.3.75-5.42.9l-.05-.06c5.4 2.76 13.23 2.74 22.22-.7 10.06-3.8 19.38-11.13 25.9-19.48-.1.03-.15.1-.26.12z" stroke="#000" stroke-opacity="0" fill="#24b8eb"/><path d="M1341.15-722.13c.27 2.1.92 4.06 1.84 5.85l.47.94c.33.56.7 1.1 1.08 1.6 1.9.14 3.67.17 5.23.14 3.13-.07 5.66-.43 7.6-1.1.27-.1.6.05.7.34.1.28-.05.6-.32.7-.27.1-.54.17-.8.24-1.52.44-3.3.74-5.4.87h-.27c-.82.06-1.73.08-2.65.08-.97 0-2-.02-3.13-.07 3.83 4.27 9.87 6.83 17.37 6.83 13.52 0 25.33-5.13 32.18-16.43h-53.93z" stroke="#000" stroke-opacity="0" fill="#008bb8"/><path d="M1344.2-722.12c.8 3.67 2.77 6.55 5.6 8.5 3.1-.04 5.64-.4 7.57-1.08.3-.1.63.06.72.33.08.3-.06.6-.33.7-.27.1-.54.18-.8.25-1.53.44-3.37.75-5.47.88 5.42 2.74 13.22 2.7 22.18-.72 5.42-2.07 10.62-5.15 15.32-8.86h-44.8z" stroke="#000" stroke-opacity="0" fill="#039bc6"/><path d="M1352.5-733.63h.48v5.14h-.5v-5.13zm-.96 0h.5v5.14h-.5v-5.13zm-.93 0h.52v5.14h-.5v-5.13zm-.93 0h.5v5.14h-.5v-5.13zm-.95 0h.52v5.14h-.52v-5.13zm-.9 0h.48v5.14h-.5v-5.13zm-.53-.5h6.2v6.15h-6.2v-6.16zM1359.64-740.73h.5v5.13h-.5v-5.13zm-.94 0h.5v5.13h-.5v-5.13zm-.94 0h.5v5.13h-.5v-5.13zm-.94 0h.5v5.13h-.5v-5.13zm-.94 0h.5v5.13h-.5v-5.13zm-.92 0h.5v5.13h-.5v-5.13zm-.52-.52h6.2v6.16h-6.2v-6.15z" stroke="#000" stroke-opacity="0" fill="#00acd3"/><path d="M1359.64-733.63h.5v5.14h-.5v-5.13zm-.94 0h.5v5.14h-.5v-5.13zm-.94 0h.5v5.14h-.5v-5.13zm-.94 0h.5v5.14h-.5v-5.13zm-.94 0h.5v5.14h-.5v-5.13zm-.92 0h.5v5.14h-.5v-5.13zm-.52-.5h6.2v6.15h-6.2v-6.16z" stroke="#000" stroke-opacity="0" fill="#20c2ef"/><path d="M1366.8-733.63h.5v5.14h-.5v-5.13zm-.95 0h.5v5.14h-.5v-5.13zm-.93 0h.5v5.14h-.5v-5.13zm-.95 0h.5v5.14h-.5v-5.13zm-.93 0h.5v5.14h-.5v-5.13zm-.92 0h.5v5.14h-.5v-5.13zm-.52-.5h6.2v6.15h-6.2v-6.16z" stroke="#000" stroke-opacity="0" fill="#00acd3"/><path d="M1366.8-740.73h.5v5.13h-.5v-5.13zm-.95 0h.5v5.13h-.5v-5.13zm-.93 0h.5v5.13h-.5v-5.13zm-.95 0h.5v5.13h-.5v-5.13zm-.93 0h.5v5.13h-.5v-5.13zm-.92 0h.5v5.13h-.5v-5.13zm-.52-.52h6.2v6.16h-6.2v-6.15zM1373.95-733.63h.5v5.14h-.5v-5.13zm-.94 0h.52v5.14h-.5v-5.13zm-.93 0h.5v5.14h-.5v-5.13zm-.94 0h.5v5.14h-.5v-5.13zm-.94 0h.5v5.14h-.5v-5.13zm-.93 0h.5v5.14h-.5v-5.13zm-.52-.5h6.2v6.15h-6.2v-6.16z" stroke="#000" stroke-opacity="0" fill="#20c2ef"/><path d="M1373.95-740.73h.5v5.13h-.5v-5.13zm-.94 0h.52v5.13h-.5v-5.13zm-.93 0h.5v5.13h-.5v-5.13zm-.94 0h.5v5.13h-.5v-5.13zm-.94 0h.5v5.13h-.5v-5.13zm-.93 0h.5v5.13h-.5v-5.13zm-.52-.52h6.2v6.16h-6.2v-6.15z" stroke="#000" stroke-opacity="0" fill="#00acd3"/><path d="M1373.95-747.84h.5v5.14h-.5v-5.14zm-.94 0h.52v5.14h-.5v-5.14zm-.93 0h.5v5.14h-.5v-5.14zm-.94 0h.5v5.14h-.5v-5.14zm-.94 0h.5v5.14h-.5v-5.14zm-.93 0h.5v5.14h-.5v-5.14zm-.52-.5h6.2v6.15h-6.2v-6.15z" stroke="#000" stroke-opacity="0" fill="#20c2ef"/><path d="M1381.1-733.63h.5v5.14h-.5v-5.13zm-.94 0h.5v5.14h-.5v-5.13zm-.93 0h.5v5.14h-.5v-5.13zm-.95 0h.5v5.14h-.5v-5.13zm-.93 0h.5v5.14h-.5v-5.13zm-.93 0h.5v5.14h-.5v-5.13zm-.5-.5h6.2v6.15h-6.2v-6.16z" stroke="#000" stroke-opacity="0" fill="#00acd3"/><path d="M1360.26-718c.94 0 1.7.77 1.7 1.7 0 .95-.76 1.7-1.7 1.7-.95 0-1.7-.75-1.7-1.7 0-.93.75-1.7 1.7-1.7" stroke="#000" stroke-opacity="0" fill="#d4edf1"/><path d="M1360.26-717.5c.15 0 .3.02.44.08-.15.08-.25.24-.25.43 0 .28.22.5.5.5.2 0 .36-.1.44-.26.05.15.08.3.08.47 0 .68-.55 1.23-1.22 1.23-.68 0-1.23-.55-1.23-1.22 0-.66.55-1.2 1.23-1.2M1330-721.5H1409.58c-1.75-.45-5.5-1.04-4.86-3.3-3.18 3.63-10.74 2.55-12.65.76-2.15 3.08-14.56 1.9-15.44-.5-2.7 3.13-10.98 3.13-13.7 0-.86 2.4-13.27 3.58-15.42.5-1.9 1.8-9.46 2.87-12.65-.75.64 2.26-3.1 2.85-4.85 3.3" stroke="#000" stroke-opacity="0" fill="#394d54"/><path d="M1364.8-705.74c-4.24-2-6.55-4.72-7.86-7.68-1.57.45-3.46.74-5.66.86-.82.04-1.7.07-2.6.07-1.06 0-2.17-.02-3.34-.1 3.9 3.87 8.66 6.84 17.52 6.9.64 0 1.3 0 1.95-.04z" stroke="#000" stroke-opacity="0" fill="#bfdbe0"/><path d="M1358.52-710.68c-.58-.8-1.15-1.8-1.57-2.74-1.58.45-3.46.73-5.66.86 1.5.8 3.65 1.57 7.22 1.88z" stroke="#000" stroke-opacity="0" fill="#d4edf1"/><path d="M533.18-715.7H440.5v-1h92.68zm124.12 0h-76.8v-1h76.8z" stroke="#3a414a" stroke-width=".05" fill="#3a414a"/><path d="M440.5-715.7h-.5v-1h.5z" fill="#3a414a"/><path d="M440.54-715.67h-.56v-1.05h.56zm-.52-1v.95h.47v-.95z" stroke="#3a414a" stroke-width=".05" fill="#3a414a"/><path d="M672.06-716.2l-14.26 4.64v-9.27z" fill="#3a414a"/><path d="M673.68-716.2l-16.38 5.33v-10.65zm-15.38 3.95l12.14-3.95-12.15-3.94z" stroke="#3a414a" stroke-width=".05" fill="#3a414a"/><g><use xlink:href="#w" transform="matrix(1,0,0,1,533.1852625123457,-726.8631568215344) translate(0 14.222222222222223)"/></g><defs><path fill="#232f3e" d="M205 0l-28-72H64L36 0H1l101-248h38L239 0h-34zm-38-99l-47-123c-12 45-31 82-46 123h93" id="x"/><path fill="#232f3e" d="M266 0h-40l-56-210L115 0H75L2-248h35L96-30l15-64 43-154h32l59 218 59-218h35" id="y"/><path fill="#232f3e" d="M185-189c-5-48-123-54-124 2 14 75 158 14 163 119 3 78-121 87-175 55-17-10-28-26-33-46l33-7c5 56 141 63 141-1 0-78-155-14-162-118-5-82 145-84 179-34 5 7 8 16 11 25" id="z"/><g id="a"><use transform="matrix(0.05,0,0,0.05,0,0)" xlink:href="#x"/><use transform="matrix(0.05,0,0,0.05,11.35,0)" xlink:href="#y"/><use transform="matrix(0.05,0,0,0.05,28.299999999999997,0)" xlink:href="#z"/></g><path fill="#232f3e" d="M212-179c-10-28-35-45-73-45-59 0-87 40-87 99 0 60 29 101 89 101 43 0 62-24 78-52l27 14C228-24 195 4 139 4 59 4 22-46 18-125c-6-104 99-153 187-111 19 9 31 26 39 46" id="A"/><path fill="#232f3e" d="M24 0v-261h32V0H24" id="B"/><path fill="#232f3e" d="M100-194c62-1 85 37 85 99 1 63-27 99-86 99S16-35 15-95c0-66 28-99 85-99zM99-20c44 1 53-31 53-75 0-43-8-75-51-75s-53 32-53 75 10 74 51 75" id="C"/><path fill="#232f3e" d="M84 4C-5 8 30-112 23-190h32v120c0 31 7 50 39 49 72-2 45-101 50-169h31l1 190h-30c-1-10 1-25-2-33-11 22-28 36-60 37" id="D"/><path fill="#232f3e" d="M85-194c31 0 48 13 60 33l-1-100h32l1 261h-30c-2-10 0-23-3-31C134-8 116 4 85 4 32 4 16-35 15-94c0-66 23-100 70-100zm9 24c-40 0-46 34-46 75 0 40 6 74 45 74 42 0 51-32 51-76 0-42-9-74-50-73" id="E"/><g id="b"><use transform="matrix(0.05,0,0,0.05,0,0)" xlink:href="#A"/><use transform="matrix(0.05,0,0,0.05,12.950000000000001,0)" xlink:href="#B"/><use transform="matrix(0.05,0,0,0.05,16.900000000000002,0)" xlink:href="#C"/><use transform="matrix(0.05,0,0,0.05,26.900000000000002,0)" xlink:href="#D"/><use transform="matrix(0.05,0,0,0.05,36.900000000000006,0)" xlink:href="#E"/></g><path fill="#248814" d="M137 0h-34L2-248h35l83 218 83-218h36" id="F"/><path fill="#248814" d="M24-231v-30h32v30H24zM24 0v-190h32V0H24" id="G"/><path fill="#248814" d="M114-163C36-179 61-72 57 0H25l-1-190h30c1 12-1 29 2 39 6-27 23-49 58-41v29" id="H"/><path fill="#248814" d="M59-47c-2 24 18 29 38 22v24C64 9 27 4 27-40v-127H5v-23h24l9-43h21v43h35v23H59v120" id="I"/><path fill="#248814" d="M84 4C-5 8 30-112 23-190h32v120c0 31 7 50 39 49 72-2 45-101 50-169h31l1 190h-30c-1-10 1-25-2-33-11 22-28 36-60 37" id="J"/><path fill="#248814" d="M141-36C126-15 110 5 73 4 37 3 15-17 15-53c-1-64 63-63 125-63 3-35-9-54-41-54-24 1-41 7-42 31l-33-3c5-37 33-52 76-52 45 0 72 20 72 64v82c-1 20 7 32 28 27v20c-31 9-61-2-59-35zM48-53c0 20 12 33 32 33 41-3 63-29 60-74-43 2-92-5-92 41" id="K"/><path fill="#248814" d="M24 0v-261h32V0H24" id="L"/><g id="c"><use transform="matrix(0.05,0,0,0.05,0,0)" xlink:href="#F"/><use transform="matrix(0.05,0,0,0.05,11.65,0)" xlink:href="#G"/><use transform="matrix(0.05,0,0,0.05,15.600000000000001,0)" xlink:href="#H"/><use transform="matrix(0.05,0,0,0.05,21.55,0)" xlink:href="#I"/><use transform="matrix(0.05,0,0,0.05,26.55,0)" xlink:href="#J"/><use transform="matrix(0.05,0,0,0.05,36.55,0)" xlink:href="#K"/><use transform="matrix(0.05,0,0,0.05,46.55,0)" xlink:href="#L"/></g><path fill="#248814" d="M30-248c87 1 191-15 191 75 0 78-77 80-158 76V0H30v-248zm33 125c57 0 124 11 124-50 0-59-68-47-124-48v98" id="M"/><path fill="#248814" d="M108 0H70L1-190h34L89-25l56-165h34" id="N"/><path fill="#248814" d="M100-194c63 0 86 42 84 106H49c0 40 14 67 53 68 26 1 43-12 49-29l28 8c-11 28-37 45-77 45C44 4 14-33 15-96c1-61 26-98 85-98zm52 81c6-60-76-77-97-28-3 7-6 17-6 28h103" id="O"/><g id="d"><use transform="matrix(0.05,0,0,0.05,0,0)" xlink:href="#M"/><use transform="matrix(0.05,0,0,0.05,12,0)" xlink:href="#H"/><use transform="matrix(0.05,0,0,0.05,17.95,0)" xlink:href="#G"/><use transform="matrix(0.05,0,0,0.05,21.9,0)" xlink:href="#N"/><use transform="matrix(0.05,0,0,0.05,30.899999999999995,0)" xlink:href="#K"/><use transform="matrix(0.05,0,0,0.05,40.9,0)" xlink:href="#I"/><use transform="matrix(0.05,0,0,0.05,45.9,0)" xlink:href="#O"/></g><path fill="#248814" d="M212-179c-10-28-35-45-73-45-59 0-87 40-87 99 0 60 29 101 89 101 43 0 62-24 78-52l27 14C228-24 195 4 139 4 59 4 22-46 18-125c-6-104 99-153 187-111 19 9 31 26 39 46" id="P"/><path fill="#248814" d="M100-194c62-1 85 37 85 99 1 63-27 99-86 99S16-35 15-95c0-66 28-99 85-99zM99-20c44 1 53-31 53-75 0-43-8-75-51-75s-53 32-53 75 10 74 51 75" id="Q"/><path fill="#248814" d="M85-194c31 0 48 13 60 33l-1-100h32l1 261h-30c-2-10 0-23-3-31C134-8 116 4 85 4 32 4 16-35 15-94c0-66 23-100 70-100zm9 24c-40 0-46 34-46 75 0 40 6 74 45 74 42 0 51-32 51-76 0-42-9-74-50-73" id="R"/><g id="e"><use transform="matrix(0.05,0,0,0.05,0,0)" xlink:href="#P"/><use transform="matrix(0.05,0,0,0.05,12.950000000000001,0)" xlink:href="#L"/><use transform="matrix(0.05,0,0,0.05,16.900000000000002,0)" xlink:href="#Q"/><use transform="matrix(0.05,0,0,0.05,26.900000000000002,0)" xlink:href="#J"/><use transform="matrix(0.05,0,0,0.05,36.900000000000006,0)" xlink:href="#R"/></g><path fill="#282c33" d="M140-251c81 0 123 46 123 126C263-46 219 4 140 4 59 4 17-45 17-125s42-126 123-126zm0 227c63 0 89-41 89-101s-29-99-89-99c-61 0-89 39-89 99S79-25 140-24" id="S"/><path fill="#282c33" d="M114-163C36-179 61-72 57 0H25l-1-190h30c1 12-1 29 2 39 6-27 23-49 58-41v29" id="T"/><path fill="#282c33" d="M96-169c-40 0-48 33-48 73s9 75 48 75c24 0 41-14 43-38l32 2c-6 37-31 61-74 61-59 0-76-41-82-99-10-93 101-131 147-64 4 7 5 14 7 22l-32 3c-4-21-16-35-41-35" id="U"/><path fill="#282c33" d="M106-169C34-169 62-67 57 0H25v-261h32l-1 103c12-21 28-36 61-36 89 0 53 116 60 194h-32v-121c2-32-8-49-39-48" id="V"/><path fill="#282c33" d="M100-194c63 0 86 42 84 106H49c0 40 14 67 53 68 26 1 43-12 49-29l28 8c-11 28-37 45-77 45C44 4 14-33 15-96c1-61 26-98 85-98zm52 81c6-60-76-77-97-28-3 7-6 17-6 28h103" id="W"/><path fill="#282c33" d="M135-143c-3-34-86-38-87 0 15 53 115 12 119 90S17 21 10-45l28-5c4 36 97 45 98 0-10-56-113-15-118-90-4-57 82-63 122-42 12 7 21 19 24 35" id="X"/><path fill="#282c33" d="M59-47c-2 24 18 29 38 22v24C64 9 27 4 27-40v-127H5v-23h24l9-43h21v43h35v23H59v120" id="Y"/><path fill="#282c33" d="M141-36C126-15 110 5 73 4 37 3 15-17 15-53c-1-64 63-63 125-63 3-35-9-54-41-54-24 1-41 7-42 31l-33-3c5-37 33-52 76-52 45 0 72 20 72 64v82c-1 20 7 32 28 27v20c-31 9-61-2-59-35zM48-53c0 20 12 33 32 33 41-3 63-29 60-74-43 2-92-5-92 41" id="Z"/><path fill="#282c33" d="M100-194c62-1 85 37 85 99 1 63-27 99-86 99S16-35 15-95c0-66 28-99 85-99zM99-20c44 1 53-31 53-75 0-43-8-75-51-75s-53 32-53 75 10 74 51 75" id="aa"/><g id="f"><use transform="matrix(0.06172839506172839,0,0,0.06172839506172839,0,0)" xlink:href="#S"/><use transform="matrix(0.06172839506172839,0,0,0.06172839506172839,17.28395061728395,0)" xlink:href="#T"/><use transform="matrix(0.06172839506172839,0,0,0.06172839506172839,24.629629629629626,0)" xlink:href="#U"/><use transform="matrix(0.06172839506172839,0,0,0.06172839506172839,35.74074074074073,0)" xlink:href="#V"/><use transform="matrix(0.06172839506172839,0,0,0.06172839506172839,48.08641975308641,0)" xlink:href="#W"/><use transform="matrix(0.06172839506172839,0,0,0.06172839506172839,60.43209876543209,0)" xlink:href="#X"/><use transform="matrix(0.06172839506172839,0,0,0.06172839506172839,71.5432098765432,0)" xlink:href="#Y"/><use transform="matrix(0.06172839506172839,0,0,0.06172839506172839,77.71604938271604,0)" xlink:href="#T"/><use transform="matrix(0.06172839506172839,0,0,0.06172839506172839,85.06172839506172,0)" xlink:href="#Z"/><use transform="matrix(0.06172839506172839,0,0,0.06172839506172839,97.4074074074074,0)" xlink:href="#Y"/><use transform="matrix(0.06172839506172839,0,0,0.06172839506172839,103.58024691358024,0)" xlink:href="#aa"/><use transform="matrix(0.06172839506172839,0,0,0.06172839506172839,115.92592592592592,0)" xlink:href="#T"/></g><path fill="#3a414a" d="M240 0l2-218c-23 76-54 145-80 218h-23L58-218 59 0H30v-248h44l77 211c21-75 51-140 76-211h43V0h-30" id="ab"/><path fill="#3a414a" d="M141-36C126-15 110 5 73 4 37 3 15-17 15-53c-1-64 63-63 125-63 3-35-9-54-41-54-24 1-41 7-42 31l-33-3c5-37 33-52 76-52 45 0 72 20 72 64v82c-1 20 7 32 28 27v20c-31 9-61-2-59-35zM48-53c0 20 12 33 32 33 41-3 63-29 60-74-43 2-92-5-92 41" id="ac"/><path fill="#3a414a" d="M177-190C167-65 218 103 67 71c-23-6-38-20-44-43l32-5c15 47 100 32 89-28v-30C133-14 115 1 83 1 29 1 15-40 15-95c0-56 16-97 71-98 29-1 48 16 59 35 1-10 0-23 2-32h30zM94-22c36 0 50-32 50-73 0-42-14-75-50-75-39 0-46 34-46 75s6 73 46 73" id="ad"/><path fill="#3a414a" d="M210-169c-67 3-38 105-44 169h-31v-121c0-29-5-50-35-48C34-165 62-65 56 0H25l-1-190h30c1 10-1 24 2 32 10-44 99-50 107 0 11-21 27-35 58-36 85-2 47 119 55 194h-31v-121c0-29-5-49-35-48" id="ae"/><g id="g"><use transform="matrix(0.08641975308641976,0,0,0.08641975308641976,0,0)" xlink:href="#ab"/><use transform="matrix(0.08641975308641976,0,0,0.08641975308641976,25.83950617283951,0)" xlink:href="#ac"/><use transform="matrix(0.08641975308641976,0,0,0.08641975308641976,43.12345679012346,0)" xlink:href="#ad"/><use transform="matrix(0.08641975308641976,0,0,0.08641975308641976,60.407407407407426,0)" xlink:href="#ae"/><use transform="matrix(0.08641975308641976,0,0,0.08641975308641976,86.24691358024693,0)" xlink:href="#ac"/></g><path fill="#3a414a" d="M212-179c-10-28-35-45-73-45-59 0-87 40-87 99 0 60 29 101 89 101 43 0 62-24 78-52l27 14C228-24 195 4 139 4 59 4 22-46 18-125c-6-104 99-153 187-111 19 9 31 26 39 46" id="af"/><path fill="#3a414a" d="M100-194c62-1 85 37 85 99 1 63-27 99-86 99S16-35 15-95c0-66 28-99 85-99zM99-20c44 1 53-31 53-75 0-43-8-75-51-75s-53 32-53 75 10 74 51 75" id="ag"/><path fill="#3a414a" d="M114-163C36-179 61-72 57 0H25l-1-190h30c1 12-1 29 2 39 6-27 23-49 58-41v29" id="ah"/><path fill="#3a414a" d="M100-194c63 0 86 42 84 106H49c0 40 14 67 53 68 26 1 43-12 49-29l28 8c-11 28-37 45-77 45C44 4 14-33 15-96c1-61 26-98 85-98zm52 81c6-60-76-77-97-28-3 7-6 17-6 28h103" id="ai"/><g id="h"><use transform="matrix(0.08641975308641976,0,0,0.08641975308641976,0,0)" xlink:href="#af"/><use transform="matrix(0.08641975308641976,0,0,0.08641975308641976,22.38271604938272,0)" xlink:href="#ag"/><use transform="matrix(0.08641975308641976,0,0,0.08641975308641976,39.66666666666667,0)" xlink:href="#ah"/><use transform="matrix(0.08641975308641976,0,0,0.08641975308641976,49.95061728395062,0)" xlink:href="#ai"/></g><path fill="#3a414a" d="M205 0l-28-72H64L36 0H1l101-248h38L239 0h-34zm-38-99l-47-123c-12 45-31 82-46 123h93" id="aj"/><path fill="#3a414a" d="M96-169c-40 0-48 33-48 73s9 75 48 75c24 0 41-14 43-38l32 2c-6 37-31 61-74 61-59 0-76-41-82-99-10-93 101-131 147-64 4 7 5 14 7 22l-32 3c-4-21-16-35-41-35" id="ak"/><path fill="#3a414a" d="M135-143c-3-34-86-38-87 0 15 53 115 12 119 90S17 21 10-45l28-5c4 36 97 45 98 0-10-56-113-15-118-90-4-57 82-63 122-42 12 7 21 19 24 35" id="al"/><g id="i"><use transform="matrix(0.05555555555555555,0,0,0.05555555555555555,0,0)" xlink:href="#aj"/><use transform="matrix(0.05555555555555555,0,0,0.05555555555555555,13.333333333333332,0)" xlink:href="#ak"/><use transform="matrix(0.05555555555555555,0,0,0.05555555555555555,23.333333333333332,0)" xlink:href="#ak"/><use transform="matrix(0.05555555555555555,0,0,0.05555555555555555,33.33333333333333,0)" xlink:href="#ai"/><use transform="matrix(0.05555555555555555,0,0,0.05555555555555555,44.44444444444444,0)" xlink:href="#al"/><use transform="matrix(0.05555555555555555,0,0,0.05555555555555555,54.44444444444444,0)" xlink:href="#al"/></g><path fill="#3a414a" d="M143 4C61 4 22-44 18-125c-5-107 100-154 193-111 17 8 29 25 37 43l-32 9c-13-25-37-40-76-40-61 0-88 39-88 99 0 61 29 100 91 101 35 0 62-11 79-27v-45h-74v-28h105v86C228-13 192 4 143 4" id="am"/><path fill="#3a414a" d="M59-47c-2 24 18 29 38 22v24C64 9 27 4 27-40v-127H5v-23h24l9-43h21v43h35v23H59v120" id="an"/><path fill="#3a414a" d="M206 0h-36l-40-164L89 0H53L-1-190h32L70-26l43-164h34l41 164 42-164h31" id="ao"/><path fill="#3a414a" d="M179-190L93 31C79 59 56 82 12 73V49c39 6 53-20 64-50L1-190h34L92-34l54-156h33" id="ap"/><g id="j"><use transform="matrix(0.05555555555555555,0,0,0.05555555555555555,0,0)" xlink:href="#am"/><use transform="matrix(0.05555555555555555,0,0,0.05555555555555555,15.555555555555555,0)" xlink:href="#ac"/><use transform="matrix(0.05555555555555555,0,0,0.05555555555555555,26.666666666666664,0)" xlink:href="#an"/><use transform="matrix(0.05555555555555555,0,0,0.05555555555555555,32.22222222222222,0)" xlink:href="#ai"/><use transform="matrix(0.05555555555555555,0,0,0.05555555555555555,43.33333333333333,0)" xlink:href="#ao"/><use transform="matrix(0.05555555555555555,0,0,0.05555555555555555,57.72222222222222,0)" xlink:href="#ac"/><use transform="matrix(0.05555555555555555,0,0,0.05555555555555555,68.83333333333333,0)" xlink:href="#ap"/></g><path d="M140-251c81 0 123 46 123 126C263-46 219 4 140 4 59 4 17-45 17-125s42-126 123-126zm0 227c63 0 89-41 89-101s-29-99-89-99c-61 0-89 39-89 99S79-25 140-24" id="aq"/><path d="M114-163C36-179 61-72 57 0H25l-1-190h30c1 12-1 29 2 39 6-27 23-49 58-41v29" id="ar"/><path d="M96-169c-40 0-48 33-48 73s9 75 48 75c24 0 41-14 43-38l32 2c-6 37-31 61-74 61-59 0-76-41-82-99-10-93 101-131 147-64 4 7 5 14 7 22l-32 3c-4-21-16-35-41-35" id="as"/><path d="M134-131c28 9 52 24 51 62-1 50-34 73-85 73S17-19 16-69c0-36 21-54 49-61-75-25-45-126 34-121 46 3 78 18 79 63 0 33-17 51-44 57zm-34-11c31 1 46-15 46-44 0-28-17-43-47-42-29 0-46 13-45 42 1 28 16 44 46 44zm1 122c35 0 51-18 51-52 0-30-18-46-53-46-33 0-51 17-51 47 0 34 19 51 53 51" id="at"/><g id="k"><use transform="matrix(0.05,0,0,0.05,0,0)" xlink:href="#aq"/><use transform="matrix(0.05,0,0,0.05,14,0)" xlink:href="#ar"/><use transform="matrix(0.05,0,0,0.05,19.95,0)" xlink:href="#as"/><use transform="matrix(0.05,0,0,0.05,28.950000000000003,0)" xlink:href="#ar"/><use transform="matrix(0.05,0,0,0.05,34.9,0)" xlink:href="#at"/></g><path d="M135-143c-3-34-86-38-87 0 15 53 115 12 119 90S17 21 10-45l28-5c4 36 97 45 98 0-10-56-113-15-118-90-4-57 82-63 122-42 12 7 21 19 24 35" id="au"/><path d="M100-194c63 0 86 42 84 106H49c0 40 14 67 53 68 26 1 43-12 49-29l28 8c-11 28-37 45-77 45C44 4 14-33 15-96c1-61 26-98 85-98zm52 81c6-60-76-77-97-28-3 7-6 17-6 28h103" id="av"/><path d="M108 0H70L1-190h34L89-25l56-165h34" id="aw"/><path d="M24-231v-30h32v30H24zM24 0v-190h32V0H24" id="ax"/><g id="l"><use transform="matrix(0.05,0,0,0.05,0,0)" xlink:href="#au"/><use transform="matrix(0.05,0,0,0.05,9,0)" xlink:href="#av"/><use transform="matrix(0.05,0,0,0.05,19,0)" xlink:href="#ar"/><use transform="matrix(0.05,0,0,0.05,24.95,0)" xlink:href="#aw"/><use transform="matrix(0.05,0,0,0.05,33.95,0)" xlink:href="#ax"/><use transform="matrix(0.05,0,0,0.05,37.900000000000006,0)" xlink:href="#as"/><use transform="matrix(0.05,0,0,0.05,46.900000000000006,0)" xlink:href="#av"/><use transform="matrix(0.05,0,0,0.05,56.900000000000006,0)" xlink:href="#au"/></g><path fill="#3a414a" d="M63-220v92h138v28H63V0H30v-248h175v28H63" id="ay"/><path fill="#3a414a" d="M85-194c31 0 48 13 60 33l-1-100h32l1 261h-30c-2-10 0-23-3-31C134-8 116 4 85 4 32 4 16-35 15-94c0-66 23-100 70-100zm9 24c-40 0-46 34-46 75 0 40 6 74 45 74 42 0 51-32 51-76 0-42-9-74-50-73" id="az"/><path fill="#3a414a" d="M117-194c89-4 53 116 60 194h-32v-121c0-31-8-49-39-48C34-167 62-67 57 0H25l-1-190h30c1 10-1 24 2 32 11-22 29-35 61-36" id="aA"/><g id="m"><use transform="matrix(0.05555555555555555,0,0,0.05555555555555555,0,0)" xlink:href="#ay"/><use transform="matrix(0.05555555555555555,0,0,0.05555555555555555,12.166666666666666,0)" xlink:href="#ai"/><use transform="matrix(0.05555555555555555,0,0,0.05555555555555555,23.27777777777778,0)" xlink:href="#az"/><use transform="matrix(0.05555555555555555,0,0,0.05555555555555555,34.388888888888886,0)" xlink:href="#ai"/><use transform="matrix(0.05555555555555555,0,0,0.05555555555555555,45.5,0)" xlink:href="#ah"/><use transform="matrix(0.05555555555555555,0,0,0.05555555555555555,52.111111111111114,0)" xlink:href="#ac"/><use transform="matrix(0.05555555555555555,0,0,0.05555555555555555,63.22222222222223,0)" xlink:href="#an"/><use transform="matrix(0.05555555555555555,0,0,0.05555555555555555,68.77777777777779,0)" xlink:href="#ag"/><use transform="matrix(0.05555555555555555,0,0,0.05555555555555555,79.8888888888889,0)" xlink:href="#aA"/></g><path fill="#333" d="M127-220V0H93v-220H8v-28h204v28h-85" id="aB"/><path fill="#333" d="M100-194c62-1 85 37 85 99 1 63-27 99-86 99S16-35 15-95c0-66 28-99 85-99zM99-20c44 1 53-31 53-75 0-43-8-75-51-75s-53 32-53 75 10 74 51 75" id="aC"/><path fill="#333" d="M59-47c-2 24 18 29 38 22v24C64 9 27 4 27-40v-127H5v-23h24l9-43h21v43h35v23H59v120" id="aD"/><path fill="#333" d="M177-190C167-65 218 103 67 71c-23-6-38-20-44-43l32-5c15 47 100 32 89-28v-30C133-14 115 1 83 1 29 1 15-40 15-95c0-56 16-97 71-98 29-1 48 16 59 35 1-10 0-23 2-32h30zM94-22c36 0 50-32 50-73 0-42-14-75-50-75-39 0-46 34-46 75s6 73 46 73" id="aE"/><path fill="#333" d="M24-231v-30h32v30H24zM24 0v-190h32V0H24" id="aF"/><g id="n"><use transform="matrix(0.06172839506172839,0,0,0.06172839506172839,0,0)" xlink:href="#aB"/><use transform="matrix(0.06172839506172839,0,0,0.06172839506172839,11.049382716049381,0)" xlink:href="#aC"/><use transform="matrix(0.06172839506172839,0,0,0.06172839506172839,23.39506172839506,0)" xlink:href="#aD"/><use transform="matrix(0.06172839506172839,0,0,0.06172839506172839,29.5679012345679,0)" xlink:href="#aC"/><use transform="matrix(0.06172839506172839,0,0,0.06172839506172839,41.913580246913575,0)" xlink:href="#aE"/><use transform="matrix(0.06172839506172839,0,0,0.06172839506172839,54.25925925925925,0)" xlink:href="#aF"/></g><path fill="#333" d="M140-251c81 0 123 46 123 126C263-46 219 4 140 4 59 4 17-45 17-125s42-126 123-126zm0 227c63 0 89-41 89-101s-29-99-89-99c-61 0-89 39-89 99S79-25 140-24" id="aG"/><path fill="#333" d="M212-179c-10-28-35-45-73-45-59 0-87 40-87 99 0 60 29 101 89 101 43 0 62-24 78-52l27 14C228-24 195 4 139 4 59 4 22-46 18-125c-6-104 99-153 187-111 19 9 31 26 39 46" id="aH"/><path fill="#333" d="M185-189c-5-48-123-54-124 2 14 75 158 14 163 119 3 78-121 87-175 55-17-10-28-26-33-46l33-7c5 56 141 63 141-1 0-78-155-14-162-118-5-82 145-84 179-34 5 7 8 16 11 25" id="aI"/><g id="o"><use transform="matrix(0.06172839506172839,0,0,0.06172839506172839,0,0)" xlink:href="#aG"/><use transform="matrix(0.06172839506172839,0,0,0.06172839506172839,17.28395061728395,0)" xlink:href="#aH"/><use transform="matrix(0.06172839506172839,0,0,0.06172839506172839,33.2716049382716,0)" xlink:href="#aI"/></g><path fill="#333" d="M67-125c0 54 23 88 75 88 28 0 53-7 68-21v-34h-60v-39h108v91C232-14 192 4 140 4 58 4 20-42 15-125 8-236 126-280 215-234c19 10 29 26 37 47l-47 15c-11-23-29-39-63-39-53 1-75 33-75 86" id="aJ"/><path fill="#333" d="M123 10C108 53 80 86 19 72V37c35 8 53-11 59-39L3-190h52l48 148c12-52 28-100 44-148h51" id="aK"/><g id="p"><use transform="matrix(0.04938271604938272,0,0,0.04938271604938272,0,0)" xlink:href="#aJ"/><use transform="matrix(0.04938271604938272,0,0,0.04938271604938272,13.827160493827162,0)" xlink:href="#aK"/></g><path fill="#333" d="M195-6C206 82 75 100 31 46c-4-6-6-13-8-21l49-6c3 16 16 24 34 25 40 0 42-37 40-79-11 22-30 35-61 35-53 0-70-43-70-97 0-56 18-96 73-97 30 0 46 14 59 34l2-30h47zm-90-29c32 0 41-27 41-63 0-35-9-62-40-62-32 0-39 29-40 63 0 36 9 62 39 62" id="aL"/><path fill="#333" d="M240-174c0 40-23 61-54 70L253 0h-59l-57-94H76V0H24v-248c93 4 217-23 216 74zM76-134c48-2 112 12 112-38 0-48-66-32-112-35v73" id="aM"/><path fill="#333" d="M24-248c93 1 206-16 204 79-1 75-69 88-152 82V0H24v-248zm52 121c47 0 100 7 100-41 0-47-54-39-100-39v80" id="aN"/><path fill="#333" d="M67-125c0 53 21 87 73 88 37 1 54-22 65-47l45 17C233-25 199 4 140 4 58 4 20-42 15-125 8-235 124-281 211-232c18 10 29 29 36 50l-46 12c-8-25-30-41-62-41-52 0-71 34-72 86" id="aO"/><g id="q"><use transform="matrix(0.04938271604938272,0,0,0.04938271604938272,0,0)" xlink:href="#aL"/><use transform="matrix(0.04938271604938272,0,0,0.04938271604938272,10.814814814814815,0)" xlink:href="#aM"/><use transform="matrix(0.04938271604938272,0,0,0.04938271604938272,23.60493827160494,0)" xlink:href="#aN"/><use transform="matrix(0.04938271604938272,0,0,0.04938271604938272,35.45679012345679,0)" xlink:href="#aO"/></g><path fill="#3a414a" d="M233-177c-1 41-23 64-60 70L243 0h-38l-65-103H63V0H30v-248c88 3 205-21 203 71zM63-129c60-2 137 13 137-47 0-61-80-42-137-45v92" id="aP"/><path fill="#3a414a" d="M190 0L58-211 59 0H30v-248h39L202-35l-2-213h31V0h-41" id="aQ"/><g id="r"><use transform="matrix(0.05555555555555555,0,0,0.05555555555555555,0,0)" xlink:href="#al"/><use transform="matrix(0.05555555555555555,0,0,0.05555555555555555,10,0)" xlink:href="#ah"/><use transform="matrix(0.05555555555555555,0,0,0.05555555555555555,16.61111111111111,0)" xlink:href="#al"/><use transform="matrix(0.05555555555555555,0,0,0.05555555555555555,26.61111111111111,0)" xlink:href="#aP"/><use transform="matrix(0.05555555555555555,0,0,0.05555555555555555,41,0)" xlink:href="#aj"/><use transform="matrix(0.05555555555555555,0,0,0.05555555555555555,54.33333333333333,0)" xlink:href="#aQ"/></g><path fill="#3a414a" d="M87 75C49 33 22-17 22-94c0-76 28-126 65-167h31c-38 41-64 92-64 168S80 34 118 75H87" id="aR"/><path fill="#3a414a" d="M137 0h-34L2-248h35l83 218 83-218h36" id="aS"/><path fill="#3a414a" d="M24-231v-30h32v30H24zM24 0v-190h32V0H24" id="aT"/><path fill="#3a414a" d="M84 4C-5 8 30-112 23-190h32v120c0 31 7 50 39 49 72-2 45-101 50-169h31l1 190h-30c-1-10 1-25-2-33-11 22-28 36-60 37" id="aU"/><path fill="#3a414a" d="M24 0v-261h32V0H24" id="aV"/><g id="s"><use transform="matrix(0.05555555555555555,0,0,0.05555555555555555,0,0)" xlink:href="#aR"/><use transform="matrix(0.05555555555555555,0,0,0.05555555555555555,6.611111111111111,0)" xlink:href="#aS"/><use transform="matrix(0.05555555555555555,0,0,0.05555555555555555,19.555555555555554,0)" xlink:href="#aT"/><use transform="matrix(0.05555555555555555,0,0,0.05555555555555555,23.944444444444443,0)" xlink:href="#ah"/><use transform="matrix(0.05555555555555555,0,0,0.05555555555555555,30.555555555555554,0)" xlink:href="#an"/><use transform="matrix(0.05555555555555555,0,0,0.05555555555555555,36.11111111111111,0)" xlink:href="#aU"/><use transform="matrix(0.05555555555555555,0,0,0.05555555555555555,47.222222222222214,0)" xlink:href="#ac"/><use transform="matrix(0.05555555555555555,0,0,0.05555555555555555,58.33333333333333,0)" xlink:href="#aV"/></g><path fill="#3a414a" d="M232-93c-1 65-40 97-104 97C67 4 28-28 28-90v-158h33c8 89-33 224 67 224 102 0 64-133 71-224h33v155" id="aW"/><path fill="#3a414a" d="M30 0v-248h187v28H63v79h144v27H63v87h162V0H30" id="aX"/><g id="t"><use transform="matrix(0.05555555555555555,0,0,0.05555555555555555,0,0)" xlink:href="#aW"/><use transform="matrix(0.05555555555555555,0,0,0.05555555555555555,14.388888888888888,0)" xlink:href="#aX"/></g><g id="u"><use transform="matrix(0.05555555555555555,0,0,0.05555555555555555,0,0)" xlink:href="#ac"/><use transform="matrix(0.05555555555555555,0,0,0.05555555555555555,11.11111111111111,0)" xlink:href="#aA"/><use transform="matrix(0.05555555555555555,0,0,0.05555555555555555,22.22222222222222,0)" xlink:href="#az"/></g><path fill="#3a414a" d="M160-131c35 5 61 23 61 61C221 17 115-2 30 0v-248c76 3 177-17 177 60 0 33-19 50-47 57zm-97-11c50-1 110 9 110-42 0-47-63-36-110-37v79zm0 115c55-2 124 14 124-45 0-56-70-42-124-44v89" id="aY"/><path fill="#3a414a" d="M33-261c38 41 65 92 65 168S71 34 33 75H2C39 34 66-17 66-93S39-220 2-261h31" id="aZ"/><g id="v"><use transform="matrix(0.05555555555555555,0,0,0.05555555555555555,0,0)" xlink:href="#ai"/><use transform="matrix(0.05555555555555555,0,0,0.05555555555555555,11.11111111111111,0)" xlink:href="#aQ"/><use transform="matrix(0.05555555555555555,0,0,0.05555555555555555,25.5,0)" xlink:href="#aY"/><use transform="matrix(0.05555555555555555,0,0,0.05555555555555555,38.83333333333333,0)" xlink:href="#aZ"/></g><path fill="#333" d="M169-182c-1-43-94-46-97-3 18 66 151 10 154 114 3 95-165 93-204 36-6-8-10-19-12-30l50-8c3 46 112 56 116 5-17-69-150-10-154-114-4-87 153-88 188-35 5 8 8 18 10 28" id="ba"/><path fill="#333" d="M136-208V0H84v-208H4v-40h212v40h-80" id="bb"/><g id="w"><use transform="matrix(0.04938271604938272,0,0,0.04938271604938272,0,0)" xlink:href="#ba"/><use transform="matrix(0.04938271604938272,0,0,0.04938271604938272,11.851851851851853,0)" xlink:href="#aO"/><use transform="matrix(0.04938271604938272,0,0,0.04938271604938272,24.641975308641978,0)" xlink:href="#bb"/><use transform="matrix(0.04938271604938272,0,0,0.04938271604938272,35.45679012345679,0)" xlink:href="#aN"/></g></defs></g></svg>